<svg width="622" height="622" viewBox="0 0 622 622" fill="none" xmlns="http://www.w3.org/2000/svg">
<path d="M408.778 314.297L403.64 306.099H358.408V314.297V317.245V453.6H544.573V314.297H408.778Z" fill="#2D124B"/>
<path d="M543.354 318.054H359.789V450.627H543.354V318.054Z" fill="white"/>
<path opacity="0.17" d="M544.249 316.922H539.982V451.635H544.249V316.922Z" fill="#2D124B"/>
<path opacity="0.17" d="M544.249 398.367H539.982V450.541H544.249V398.367Z" fill="#2D124B"/>
<path d="M543.59 316.263H359.055V323.478H543.59V316.263Z" fill="#FF6542" stroke="#2D124B" stroke-miterlimit="10"/>
<path d="M543.354 318.054H359.789V450.627H543.354V318.054Z" stroke="#2D124B" stroke-linecap="round" stroke-linejoin="round"/>
<g opacity="0.17">
<path opacity="0.17" d="M455.428 330.419H442.59C442.441 330.421 442.293 330.393 442.154 330.337C442.016 330.28 441.891 330.197 441.785 330.091C441.68 329.986 441.597 329.861 441.54 329.722C441.484 329.584 441.456 329.436 441.458 329.287C441.458 328.987 441.577 328.699 441.789 328.487C442.001 328.275 442.289 328.155 442.59 328.155H455.428C455.728 328.155 456.016 328.275 456.228 328.487C456.44 328.699 456.56 328.987 456.56 329.287C456.56 329.588 456.44 329.875 456.228 330.088C456.016 330.3 455.728 330.419 455.428 330.419Z" fill="#2D124B"/>
<path opacity="0.17" d="M481.116 330.419H468.266C467.966 330.419 467.678 330.3 467.465 330.088C467.253 329.875 467.134 329.588 467.134 329.287C467.134 328.987 467.253 328.699 467.465 328.487C467.678 328.275 467.966 328.155 468.266 328.155H481.116C481.265 328.155 481.412 328.185 481.55 328.241C481.687 328.298 481.812 328.382 481.917 328.487C482.022 328.592 482.105 328.717 482.162 328.854C482.219 328.991 482.248 329.139 482.248 329.287C482.248 329.436 482.219 329.583 482.162 329.721C482.105 329.858 482.022 329.983 481.917 330.088C481.812 330.193 481.687 330.276 481.55 330.333C481.412 330.39 481.265 330.419 481.116 330.419Z" fill="#2D124B"/>
<path opacity="0.17" d="M506.792 330.419H493.954C493.654 330.419 493.366 330.3 493.154 330.088C492.942 329.875 492.822 329.588 492.822 329.287C492.822 328.987 492.942 328.699 493.154 328.487C493.366 328.275 493.654 328.155 493.954 328.155H506.792C506.941 328.155 507.088 328.185 507.226 328.241C507.363 328.298 507.488 328.382 507.593 328.487C507.698 328.592 507.781 328.717 507.838 328.854C507.895 328.991 507.924 329.139 507.924 329.287C507.926 329.436 507.898 329.584 507.842 329.722C507.785 329.861 507.702 329.986 507.597 330.091C507.491 330.197 507.366 330.28 507.228 330.337C507.089 330.393 506.942 330.421 506.792 330.419Z" fill="#2D124B"/>
<path opacity="0.17" d="M532.431 330.419H519.643C519.493 330.421 519.345 330.393 519.206 330.337C519.067 330.281 518.941 330.197 518.835 330.092C518.728 329.987 518.644 329.862 518.586 329.723C518.528 329.585 518.499 329.437 518.499 329.287C518.502 328.986 518.624 328.698 518.838 328.486C519.052 328.274 519.342 328.155 519.643 328.155H532.431C532.58 328.155 532.727 328.185 532.865 328.241C533.002 328.298 533.127 328.382 533.232 328.487C533.337 328.592 533.42 328.717 533.477 328.854C533.534 328.991 533.563 329.139 533.563 329.287C533.563 329.436 533.534 329.583 533.477 329.721C533.42 329.858 533.337 329.983 533.232 330.088C533.127 330.193 533.002 330.276 532.865 330.333C532.727 330.39 532.58 330.419 532.431 330.419Z" fill="#2D124B"/>
</g>
<path d="M515.861 398.019H503.782V436.122H515.861V398.019Z" fill="#FF6542" stroke="#2D124B" stroke-miterlimit="10"/>
<path d="M502.439 422.674H490.359V436.121H502.439V422.674Z" fill="#2D124B" stroke="#2D124B" stroke-linecap="round" stroke-linejoin="round"/>
<path d="M489.016 347.574H476.937V436.11H489.016V347.574Z" fill="#FF6542" stroke="#2D124B" stroke-miterlimit="10"/>
<path d="M475.606 352.064H463.526V436.121H475.606V352.064Z" fill="white" stroke="#2D124B" stroke-linecap="round" stroke-linejoin="round"/>
<path d="M462.183 398.019H450.104V436.122H462.183V398.019Z" fill="#FF6542" stroke="#2D124B" stroke-miterlimit="10"/>
<path d="M448.76 385.69H436.681V436.122H448.76V385.69Z" fill="#2D124B" stroke="#2D124B" stroke-linecap="round" stroke-linejoin="round"/>
<path d="M435.35 429.392H423.271V436.122H435.35V429.392Z" fill="#FF6542" stroke="#2D124B" stroke-miterlimit="10"/>
<path d="M421.927 422.674H409.848V436.121H421.927V422.674Z" fill="white" stroke="#2D124B" stroke-linecap="round" stroke-linejoin="round"/>
<path d="M408.505 398.019H396.425V436.122H408.505V398.019Z" fill="#FF6542" stroke="#2D124B" stroke-miterlimit="10"/>
<path d="M411.689 363.809L416.006 388.328C412.425 388.962 408.748 388.804 405.235 387.865C401.722 386.925 398.458 385.227 395.672 382.889C392.886 380.551 390.646 377.631 389.111 374.335C387.575 371.038 386.781 367.445 386.784 363.809H411.689Z" stroke="#2D124B" stroke-width="0.75" stroke-linecap="round" stroke-linejoin="round"/>
<path d="M411.689 363.809L431.307 379.135C427.596 384.072 422.107 387.37 416.006 388.328L411.689 363.809Z" stroke="#2D124B" stroke-width="0.75" stroke-miterlimit="10"/>
<path d="M411.689 363.809L399.249 342.25C402.08 340.613 405.205 339.549 408.447 339.121C411.689 338.692 414.983 338.907 418.142 339.753C421.301 340.598 424.262 342.059 426.856 344.05C429.45 346.041 431.626 348.524 433.26 351.356C435.794 355.636 436.965 360.586 436.618 365.548C436.272 370.51 434.424 375.249 431.319 379.135L411.689 363.809Z" stroke="#2D124B" stroke-width="0.75" stroke-linecap="round" stroke-linejoin="round"/>
<path d="M420.278 372.385C425.019 367.644 425.019 359.956 420.278 355.215C415.536 350.473 407.849 350.473 403.107 355.215C398.366 359.956 398.366 367.644 403.107 372.385C407.849 377.127 415.536 377.127 420.278 372.385Z" fill="white" stroke="#2D124B" stroke-width="0.75" stroke-linecap="round" stroke-linejoin="round"/>
<path d="M446.944 462.047H476.539" stroke="#2D124B" stroke-miterlimit="10"/>
<path d="M446.944 467.085H476.539" stroke="#2D124B" stroke-miterlimit="10"/>
<path d="M446.944 472.123H476.539" stroke="#2D124B" stroke-miterlimit="10"/>
<path d="M446.944 477.149H476.539" stroke="#2D124B" stroke-miterlimit="10"/>
<path d="M510.425 431.432V472.26H481.502" stroke="#2D124B" stroke-miterlimit="10"/>
<path d="M173.115 102.655L165.837 91.0488H101.759V102.655V106.835V300.016H365.524V102.655H173.115Z" fill="#2D124B"/>
<path d="M363.782 107.979H103.711V295.811H363.782V107.979Z" fill="white"/>
<path opacity="0.17" d="M365.064 106.363H359.031V297.23H365.064V106.363Z" fill="#2D124B"/>
<path opacity="0.17" d="M365.064 221.769H359.031V295.687H365.064V221.769Z" fill="#2D124B"/>
<path d="M364.131 105.442H102.68V115.656H364.131V105.442Z" fill="#FF6542" stroke="#2D124B" stroke-miterlimit="10"/>
<path d="M363.782 107.979H103.711V295.811H363.782V107.979Z" stroke="#2D124B" stroke-linecap="round" stroke-linejoin="round"/>
<g opacity="0.17">
<path opacity="0.17" d="M239.221 125.507H221.021C220.596 125.507 220.187 125.338 219.887 125.037C219.586 124.736 219.417 124.328 219.417 123.903C219.417 123.692 219.458 123.483 219.539 123.288C219.619 123.094 219.737 122.917 219.887 122.768C220.036 122.619 220.212 122.501 220.407 122.42C220.602 122.339 220.811 122.298 221.021 122.298H239.221C239.432 122.298 239.64 122.339 239.835 122.42C240.03 122.501 240.207 122.619 240.356 122.768C240.505 122.917 240.623 123.094 240.704 123.288C240.784 123.483 240.826 123.692 240.826 123.903C240.826 124.328 240.657 124.736 240.356 125.037C240.055 125.338 239.647 125.507 239.221 125.507Z" fill="#2D124B"/>
<path opacity="0.17" d="M275.607 125.507H257.42C256.995 125.507 256.586 125.338 256.285 125.037C255.985 124.736 255.815 124.328 255.815 123.903C255.815 123.692 255.857 123.483 255.938 123.288C256.018 123.094 256.136 122.917 256.285 122.768C256.434 122.619 256.611 122.501 256.806 122.42C257.001 122.339 257.209 122.298 257.42 122.298H275.607C275.818 122.298 276.027 122.339 276.222 122.42C276.416 122.501 276.593 122.619 276.742 122.768C276.891 122.917 277.009 123.094 277.09 123.288C277.171 123.483 277.212 123.692 277.212 123.903C277.212 124.328 277.043 124.736 276.742 125.037C276.441 125.338 276.033 125.507 275.607 125.507Z" fill="#2D124B"/>
<path opacity="0.17" d="M311.995 125.507H293.807C293.382 125.507 292.974 125.338 292.673 125.037C292.372 124.736 292.203 124.328 292.203 123.903C292.203 123.692 292.244 123.483 292.325 123.288C292.405 123.094 292.524 122.917 292.673 122.768C292.822 122.619 292.999 122.501 293.193 122.42C293.388 122.339 293.597 122.298 293.807 122.298H311.995C312.205 122.298 312.414 122.339 312.609 122.42C312.804 122.501 312.98 122.619 313.129 122.768C313.278 122.917 313.397 123.094 313.477 123.288C313.558 123.483 313.599 123.692 313.599 123.903C313.599 124.328 313.43 124.736 313.129 125.037C312.828 125.338 312.42 125.507 311.995 125.507Z" fill="#2D124B"/>
<path opacity="0.17" d="M348.394 125.507H330.195C329.769 125.507 329.361 125.338 329.06 125.037C328.759 124.736 328.59 124.328 328.59 123.903C328.59 123.692 328.631 123.483 328.712 123.288C328.793 123.094 328.911 122.917 329.06 122.768C329.209 122.619 329.386 122.501 329.58 122.42C329.775 122.339 329.984 122.298 330.195 122.298H348.394C348.605 122.298 348.814 122.339 349.008 122.42C349.203 122.501 349.38 122.619 349.529 122.768C349.678 122.917 349.796 123.094 349.877 123.288C349.958 123.483 349.999 123.692 349.999 123.903C349.999 124.328 349.83 124.736 349.529 125.037C349.228 125.338 348.82 125.507 348.394 125.507Z" fill="#2D124B"/>
</g>
<path d="M117.906 215.922H352.176" stroke="#2D124B" stroke-width="0.5" stroke-miterlimit="10"/>
<path d="M117.906 215.922V214.105" stroke="#2D124B" stroke-width="0.5" stroke-miterlimit="10"/>
<path d="M147.189 215.922V214.105" stroke="#2D124B" stroke-width="0.5" stroke-miterlimit="10"/>
<path d="M176.474 215.922V214.105" stroke="#2D124B" stroke-width="0.5" stroke-miterlimit="10"/>
<path d="M205.757 215.922V214.105" stroke="#2D124B" stroke-width="0.5" stroke-miterlimit="10"/>
<path d="M235.041 215.922V214.105" stroke="#2D124B" stroke-width="0.5" stroke-miterlimit="10"/>
<path d="M264.325 215.922V214.105" stroke="#2D124B" stroke-width="0.5" stroke-miterlimit="10"/>
<path d="M293.609 215.922V214.105" stroke="#2D124B" stroke-width="0.5" stroke-miterlimit="10"/>
<path d="M322.892 215.922V214.105" stroke="#2D124B" stroke-width="0.5" stroke-miterlimit="10"/>
<path d="M352.176 215.922V214.105" stroke="#2D124B" stroke-width="0.5" stroke-miterlimit="10"/>
<path d="M161.832 197.038L132.548 206.094" stroke="#2D124B" stroke-width="2" stroke-miterlimit="10" stroke-linecap="round"/>
<path d="M191.115 177.121L161.832 197.038" stroke="#2D124B" stroke-width="2" stroke-miterlimit="10" stroke-linecap="round"/>
<path d="M220.399 149.952L191.115 177.121" stroke="#2D124B" stroke-width="2" stroke-miterlimit="10" stroke-linecap="round"/>
<path d="M249.683 147.24L220.399 149.952" stroke="#2D124B" stroke-width="2" stroke-miterlimit="10" stroke-linecap="round"/>
<path d="M278.967 167.157L249.683 147.24" stroke="#2D124B" stroke-width="2" stroke-miterlimit="10" stroke-linecap="round"/>
<path d="M308.251 186.178L278.967 167.157" stroke="#2D124B" stroke-width="2" stroke-miterlimit="10" stroke-linecap="round"/>
<path d="M337.534 146.332L308.25 186.177" stroke="#2D124B" stroke-width="2" stroke-miterlimit="10" stroke-linecap="round"/>
<path d="M132.548 202.362C133.538 202.362 134.487 202.755 135.187 203.455C135.887 204.155 136.28 205.105 136.28 206.094C136.28 207.084 135.887 208.033 135.187 208.733C134.487 209.433 133.538 209.826 132.548 209.826C131.558 209.826 130.609 209.433 129.909 208.733C129.209 208.033 128.816 207.084 128.816 206.094C128.816 205.105 129.209 204.155 129.909 203.455C130.609 202.755 131.558 202.362 132.548 202.362Z" fill="#FF6542" stroke="#2D124B" stroke-miterlimit="10"/>
<path d="M161.832 193.306C162.821 193.306 163.771 193.699 164.471 194.399C165.17 195.099 165.564 196.048 165.564 197.038C165.564 198.027 165.17 198.977 164.471 199.677C163.771 200.376 162.821 200.77 161.832 200.77C160.842 200.77 159.893 200.376 159.193 199.677C158.493 198.977 158.1 198.027 158.1 197.038C158.1 196.048 158.493 195.099 159.193 194.399C159.893 193.699 160.842 193.306 161.832 193.306Z" fill="#FF6542" stroke="#2D124B" stroke-miterlimit="10"/>
<path d="M191.115 173.39C192.105 173.39 193.054 173.783 193.754 174.483C194.454 175.183 194.847 176.132 194.847 177.122C194.847 178.111 194.454 179.061 193.754 179.761C193.054 180.46 192.105 180.854 191.115 180.854C190.126 180.854 189.176 180.46 188.476 179.761C187.776 179.061 187.383 178.111 187.383 177.122C187.383 176.132 187.776 175.183 188.476 174.483C189.176 173.783 190.126 173.39 191.115 173.39Z" fill="#FF6542" stroke="#2D124B" stroke-miterlimit="10"/>
<path d="M220.399 146.221C221.389 146.221 222.338 146.614 223.038 147.314C223.738 148.014 224.131 148.963 224.131 149.953C224.131 150.942 223.738 151.892 223.038 152.592C222.338 153.292 221.389 153.685 220.399 153.685C219.409 153.685 218.46 153.292 217.76 152.592C217.06 151.892 216.667 150.942 216.667 149.953C216.667 148.963 217.06 148.014 217.76 147.314C218.46 146.614 219.409 146.221 220.399 146.221Z" fill="#FF6542" stroke="#2D124B" stroke-miterlimit="10"/>
<path d="M249.683 143.508C250.673 143.508 251.622 143.901 252.322 144.601C253.022 145.301 253.415 146.25 253.415 147.24C253.415 148.23 253.022 149.179 252.322 149.879C251.622 150.579 250.673 150.972 249.683 150.972C248.693 150.972 247.744 150.579 247.044 149.879C246.344 149.179 245.951 148.23 245.951 147.24C245.951 146.25 246.344 145.301 247.044 144.601C247.744 143.901 248.693 143.508 249.683 143.508Z" fill="#FF6542" stroke="#2D124B" stroke-miterlimit="10"/>
<path d="M278.967 163.425C279.957 163.425 280.906 163.818 281.606 164.518C282.306 165.218 282.699 166.167 282.699 167.157C282.699 168.147 282.306 169.096 281.606 169.796C280.906 170.496 279.957 170.889 278.967 170.889C277.977 170.889 277.028 170.496 276.328 169.796C275.628 169.096 275.235 168.147 275.235 167.157C275.235 166.167 275.628 165.218 276.328 164.518C277.028 163.818 277.977 163.425 278.967 163.425Z" fill="#FF6542" stroke="#2D124B" stroke-miterlimit="10"/>
<path d="M311.983 186.177C311.983 184.116 310.312 182.445 308.251 182.445C306.189 182.445 304.519 184.116 304.519 186.177C304.519 188.238 306.189 189.909 308.251 189.909C310.312 189.909 311.983 188.238 311.983 186.177Z" fill="#FF6542" stroke="#2D124B" stroke-miterlimit="10"/>
<path d="M337.534 142.601C338.524 142.601 339.473 142.994 340.173 143.694C340.873 144.394 341.266 145.343 341.266 146.333C341.266 147.322 340.873 148.272 340.173 148.972C339.473 149.671 338.524 150.065 337.534 150.065C336.544 150.065 335.595 149.671 334.895 148.972C334.195 148.272 333.802 147.322 333.802 146.333C333.802 145.343 334.195 144.394 334.895 143.694C335.595 142.994 336.544 142.601 337.534 142.601Z" fill="#FF6542" stroke="#2D124B" stroke-miterlimit="10"/>
<path d="M226.556 262.908L200.283 267.548C199.054 260.567 200.647 253.383 204.714 247.577C208.78 241.77 214.985 237.816 221.966 236.585C223.499 236.322 225.051 236.189 226.606 236.187L226.556 262.908Z" fill="#2D124B" stroke="#2D124B" stroke-linecap="round" stroke-linejoin="round"/>
<path d="M226.557 262.907L210.111 283.968C204.802 279.993 201.258 274.1 200.234 267.547L226.557 262.907Z" fill="#FF6542" stroke="#2D124B" stroke-miterlimit="10"/>
<path d="M226.557 262.907L249.708 249.547C251.472 252.589 252.618 255.95 253.082 259.436C253.545 262.922 253.316 266.465 252.408 269.863C251.499 273.26 249.93 276.445 247.789 279.235C245.647 282.025 242.977 284.364 239.93 286.12C235.333 288.854 230.01 290.118 224.675 289.745C219.339 289.371 214.245 287.378 210.074 284.031L226.557 262.907Z" fill="white" stroke="#2D124B" stroke-linecap="round" stroke-linejoin="round"/>
<path d="M226.557 262.908V236.186C231.264 236.106 235.905 237.307 239.983 239.66C244.06 242.014 247.422 245.431 249.707 249.547L226.557 262.908Z" fill="#FF6542" stroke="#2D124B" stroke-miterlimit="10"/>
<path d="M235.773 272.128C240.864 267.037 240.864 258.782 235.773 253.691C230.682 248.599 222.427 248.599 217.336 253.691C212.245 258.782 212.245 267.036 217.336 272.128C222.427 277.219 230.682 277.219 235.773 272.128Z" fill="white" stroke="#2D124B" stroke-linecap="round" stroke-linejoin="round"/>
<path d="M147.5 262.957L152.14 289.28C148.683 289.89 145.14 289.814 141.713 289.054C138.286 288.295 135.042 286.868 132.166 284.854C129.291 282.84 126.84 280.28 124.955 277.319C123.069 274.358 121.786 271.054 121.177 267.597C120.91 266.065 120.773 264.513 120.767 262.957H147.5Z" fill="#2D124B" stroke="#2D124B" stroke-linecap="round" stroke-linejoin="round"/>
<path d="M147.5 262.957L168.561 279.415C164.581 284.716 158.69 288.256 152.141 289.28L147.5 262.957Z" fill="#FF6542" stroke="#2D124B" stroke-miterlimit="10"/>
<path d="M147.5 262.957L134.127 239.807C140.27 236.264 147.567 235.305 154.416 237.141C161.265 238.976 167.105 243.457 170.651 249.597C173.378 254.196 174.638 259.517 174.265 264.851C173.892 270.185 171.902 275.278 168.561 279.453L147.5 262.957Z" fill="white" stroke="#2D124B" stroke-linecap="round" stroke-linejoin="round"/>
<path d="M147.501 262.957H120.767C120.687 258.25 121.887 253.609 124.241 249.532C126.594 245.454 130.011 242.092 134.128 239.807L147.501 262.957Z" fill="#FF6542" stroke="#2D124B" stroke-miterlimit="10"/>
<path d="M147.501 275.994C154.701 275.994 160.538 270.157 160.538 262.957C160.538 255.757 154.701 249.92 147.501 249.92C140.3 249.92 134.463 255.757 134.463 262.957C134.463 270.157 140.3 275.994 147.501 275.994Z" fill="white" stroke="#2D124B" stroke-linecap="round" stroke-linejoin="round"/>
<path d="M305.538 262.957L310.178 289.28C306.721 289.89 303.178 289.814 299.751 289.054C296.324 288.295 293.08 286.868 290.204 284.854C287.329 282.84 284.878 280.28 282.993 277.319C281.107 274.358 279.824 271.054 279.215 267.597C278.948 266.065 278.811 264.513 278.805 262.957H305.538Z" fill="#2D124B" stroke="#2D124B" stroke-linecap="round" stroke-linejoin="round"/>
<path d="M305.539 262.957L326.6 279.415C322.619 284.716 316.728 288.256 310.179 289.28L305.539 262.957Z" fill="#FF6542" stroke="#2D124B" stroke-miterlimit="10"/>
<path d="M305.539 262.957L292.166 239.807C298.308 236.264 305.605 235.305 312.454 237.141C319.303 238.976 325.143 243.457 328.689 249.597C331.416 254.196 332.676 259.517 332.303 264.851C331.93 270.185 329.94 275.278 326.599 279.453L305.539 262.957Z" fill="white" stroke="#2D124B" stroke-linecap="round" stroke-linejoin="round"/>
<path d="M305.539 262.957H278.805C278.725 258.25 279.926 253.609 282.279 249.532C284.632 245.454 288.05 242.092 292.166 239.807L305.539 262.957Z" fill="#FF6542" stroke="#2D124B" stroke-miterlimit="10"/>
<path d="M305.539 275.994C312.739 275.994 318.576 270.157 318.576 262.957C318.576 255.757 312.739 249.92 305.539 249.92C298.338 249.92 292.501 255.757 292.501 262.957C292.501 270.157 298.338 275.994 305.539 275.994Z" fill="white" stroke="#2D124B" stroke-linecap="round" stroke-linejoin="round"/>
<path d="M118.553 136.666H148.147" stroke="#2D124B" stroke-miterlimit="10"/>
<path d="M118.553 141.692H148.147" stroke="#2D124B" stroke-miterlimit="10"/>
<path d="M118.553 146.73H148.147" stroke="#2D124B" stroke-miterlimit="10"/>
<path d="M118.553 151.769H148.147" stroke="#2D124B" stroke-miterlimit="10"/>
<path d="M348.792 148.161H377.715L411.751 177.93" stroke="#2D124B" stroke-linecap="round" stroke-linejoin="round"/>
<path d="M417.175 169.421H446.77" stroke="#2D124B" stroke-miterlimit="10"/>
<path d="M417.175 174.459H446.77" stroke="#2D124B" stroke-miterlimit="10"/>
<path d="M417.175 179.497H446.77" stroke="#2D124B" stroke-miterlimit="10"/>
<path d="M417.175 184.523H446.77" stroke="#2D124B" stroke-miterlimit="10"/>
<path d="M417.175 255.331H446.77" stroke="#2D124B" stroke-miterlimit="10"/>
<path d="M417.175 260.369H446.77" stroke="#2D124B" stroke-miterlimit="10"/>
<path d="M417.175 265.408H446.77" stroke="#2D124B" stroke-miterlimit="10"/>
<path d="M417.175 270.446H446.77" stroke="#2D124B" stroke-miterlimit="10"/>
<path d="M133.058 354.864H162.653" stroke="#2D124B" stroke-miterlimit="10"/>
<path d="M133.058 359.902H162.653" stroke="#2D124B" stroke-miterlimit="10"/>
<path d="M133.058 364.94H162.653" stroke="#2D124B" stroke-miterlimit="10"/>
<path d="M133.058 369.966H162.653" stroke="#2D124B" stroke-miterlimit="10"/>
<path d="M319.023 247.681L330.928 234.071H378.574L412.597 262.148" stroke="#2D124B" stroke-miterlimit="10"/>
<path d="M147.189 288.521V352.314" stroke="#2D124B" stroke-miterlimit="10"/>
<path d="M363.036 582.155C397.677 582.155 425.759 573.906 425.759 563.731C425.759 553.556 397.677 545.308 363.036 545.308C328.396 545.308 300.314 553.556 300.314 563.731C300.314 573.906 328.396 582.155 363.036 582.155Z" fill="#FF6542"/>
<path opacity="0.5" d="M363.036 582.155C397.677 582.155 425.759 573.906 425.759 563.731C425.759 553.556 397.677 545.308 363.036 545.308C328.396 545.308 300.314 553.556 300.314 563.731C300.314 573.906 328.396 582.155 363.036 582.155Z" fill="white"/>
<path d="M358.434 270.097C355.553 266.293 351.28 263.788 346.553 263.131C338.915 262.285 332.471 267.547 329.411 270.943C326.351 274.339 328.391 280.895 328.055 282.313C327.719 283.731 323.639 288.073 323.813 289.441C323.987 290.81 326.015 290.959 326.015 290.959C326.015 290.959 327.719 298.945 328.739 300.811C329.759 302.677 332.471 303.013 333.491 303.013C334.228 303.077 334.93 303.359 335.507 303.822L337.087 309.333L360.3 304.033L359.615 296.395C359.615 296.395 365.388 288.757 364.877 281.293C364.692 279.068 364.019 276.911 362.905 274.976C361.791 273.041 360.265 271.375 358.434 270.097Z" fill="white" stroke="#2D124B" stroke-linecap="round" stroke-linejoin="round"/>
<path d="M353.681 273.319C348.705 274.165 341.801 267.037 337.509 270.097C337.509 270.097 331.737 274.849 332.085 277.051C332.434 279.253 335.133 280.957 334.959 282.985C334.785 285.013 335.643 289.267 336.663 287.401C337.683 285.535 337.173 283.495 338.704 282.985C340.234 282.475 342.436 285.199 342.771 287.737C343.107 290.275 342.597 291.469 343.953 293.335C344.911 294.591 346.143 295.612 347.555 296.319C348.967 297.026 350.522 297.401 352.101 297.416C354.61 297.252 357.105 296.911 359.565 296.395C359.565 296.395 365.338 288.757 364.828 281.293C364.642 279.068 363.969 276.911 362.855 274.976C361.741 273.041 360.215 271.375 358.384 270.097C358.384 270.097 358.608 272.436 353.681 273.319Z" fill="white" stroke="#2D124B" stroke-linecap="round" stroke-linejoin="round"/>
<path d="M337.385 291.979C337.385 291.979 337.895 295.885 340.271 295.201C342.647 294.517 343.157 291.133 343.157 291.133" stroke="#2D124B" stroke-linecap="round" stroke-linejoin="round"/>
<path d="M330.095 314.557C331.06 312.963 332.19 311.474 333.467 310.116C335.668 307.74 348.158 303.063 353.93 302.714C359.702 302.366 364.442 307.118 367.154 309.333C367.907 309.834 368.486 310.557 368.809 311.402C369.132 312.247 369.184 313.171 368.958 314.047C362.316 311.998 355.308 311.416 348.419 312.343C341.908 313.191 335.45 314.404 329.075 315.975L330.095 314.557Z" fill="#FF6542" stroke="#2D124B" stroke-linecap="round" stroke-linejoin="round"/>
<path d="M299.406 414.363C299.406 414.363 300.936 424.838 301.446 427.388C301.956 429.938 305.588 438.186 307.666 436.233C309.743 434.28 310.44 427.649 309.42 424.328C308.4 421.006 306.87 414.886 306.621 414.115C306.372 413.343 299.406 414.363 299.406 414.363Z" fill="white" stroke="#2D124B" stroke-linecap="round" stroke-linejoin="round"/>
<path d="M296.495 377.168C295.271 381.251 294.532 385.464 294.293 389.72C294.513 396.096 295.19 402.449 296.321 408.728C297.017 413.256 300.053 417.834 302.429 417.722C309.731 417.386 307.019 403.814 308.375 396.002C309.731 388.19 310.863 387.692 311.597 379.034" fill="#FF6542"/>
<path d="M296.495 377.168C295.271 381.251 294.532 385.464 294.293 389.72C294.513 396.096 295.19 402.449 296.321 408.728C297.017 413.256 300.053 417.834 302.429 417.722C309.731 417.386 307.019 403.814 308.375 396.002C309.731 388.19 310.863 387.692 311.597 379.034" stroke="#2D124B" stroke-linecap="round" stroke-linejoin="round"/>
<path d="M331.638 553.132C330.168 553.124 328.713 553.429 327.371 554.028C325.231 555.01 324.696 556.342 325.418 557.673C326.139 559.004 327.719 562.213 330.307 563.806C332.894 565.398 336.44 566.206 338.48 567.538C340.52 568.869 344.351 568.421 345.695 566.02C347.038 563.619 345.421 558.282 345.421 558.282C342.422 557.54 339.479 556.588 336.614 555.433C333.504 554.028 331.638 553.132 331.638 553.132Z" fill="white" stroke="#2D124B" stroke-linecap="round" stroke-linejoin="round"/>
<path d="M345.695 566.02C345.799 565.808 345.886 565.587 345.956 565.361C345.123 566.112 344.13 566.665 343.054 566.979C341.977 567.294 340.843 567.361 339.736 567.177C337.957 566.816 334.76 564.602 332.708 563.793C330.36 562.642 328.407 560.819 327.097 558.556C326.475 557.405 326.114 556.131 326.04 554.824C325.596 555.13 325.285 555.593 325.169 556.12C325.054 556.646 325.143 557.197 325.418 557.661C326.127 558.992 327.719 562.201 330.307 563.793C332.894 565.386 336.44 566.194 338.48 567.525C340.52 568.857 344.351 568.434 345.695 566.02Z" fill="white" stroke="#2D124B" stroke-linecap="round" stroke-linejoin="round"/>
<path d="M365.81 555.408C365.81 555.408 366.432 559.588 366.432 561.28C366.432 562.972 369.281 565.995 372.217 565.995C375.152 565.995 378.076 564.838 379.32 563.332C380.564 561.827 380.129 556.565 380.129 556.565C380.129 556.565 368.559 558.344 365.81 555.408Z" fill="white" stroke="#2D124B" stroke-linecap="round" stroke-linejoin="round"/>
<path d="M379.32 563.333C379.68 562.811 379.907 562.208 379.98 561.579C378.561 563.158 375.713 565.46 372.516 564.838C370.055 564.212 367.901 562.725 366.445 560.646C366.445 560.882 366.445 561.093 366.445 561.28C366.445 562.972 369.294 565.995 372.229 565.995C375.165 565.995 378.076 564.838 379.32 563.333Z" fill="white" stroke="#2D124B" stroke-linecap="round" stroke-linejoin="round"/>
<path d="M316.86 398.216C316.86 398.216 317.531 412.124 317.195 418.12C316.86 424.116 317.706 454.433 318.439 464.447C319.173 474.461 321.326 497.027 322.843 506.183C324.361 515.339 332.397 551.328 332.397 551.328C332.397 551.328 330.768 554.587 331.153 555.943C331.539 557.299 334.811 560.832 339.699 561.379C344.588 561.927 345.534 560.832 346.492 558.655C347.45 556.478 347.848 550.78 348.121 547.26C348.395 543.739 351.331 536.561 350.311 527.057C349.291 517.553 351.157 484.463 351.157 484.463L352.687 461.722C352.687 461.722 353.707 489.551 354.727 493.793C355.747 498.035 363.435 543.839 364.306 546.414C365.177 548.989 364.443 553.604 364.978 554.699C365.512 555.794 365.935 558.219 367.291 559.314C368.647 560.409 374.482 560.944 376.659 559.986C378.836 559.028 380.59 557.821 380.59 556.864C380.59 555.906 381.411 551.44 381.137 548.989C380.863 546.538 380.192 544.511 380.192 543.839C380.192 543.167 382.219 507.029 382.219 497.027C382.219 487.025 380.975 475.805 380.975 475.805C380.975 475.805 384.882 446.284 385.553 434.404C386.148 426.026 385.865 417.608 384.707 409.288C384.036 405.73 382.841 398.092 382.841 398.092C382.841 398.092 368.585 402.508 357.389 402.844C346.193 403.18 342.287 404.026 336.005 402.508C329.723 400.99 321.413 398.776 320.741 398.266C320.069 397.756 316.175 395.84 316.86 398.216Z" fill="#2D124B" stroke="#2D124B" stroke-linecap="round" stroke-linejoin="round"/>
<path d="M352.662 461.673L355.548 436.73" stroke="white" stroke-linecap="round" stroke-linejoin="round"/>
<path d="M354.863 442.503L364.255 438.622" stroke="white" stroke-linecap="round" stroke-linejoin="round"/>
<path d="M381 475.755L373.946 507.041" stroke="white" stroke-linecap="round" stroke-linejoin="round"/>
<path d="M403.827 312.319C403.827 312.319 406.029 305.726 406.825 303.723C407.621 301.72 409.425 299.531 409.425 296.943C409.425 294.356 408.418 288.546 407.82 290.151C407.25 291.956 406.981 293.843 407.024 295.736C407.061 296.73 406.782 297.71 406.228 298.535C406.228 298.535 403.827 293.348 401.837 293.149C399.846 292.95 399.834 293.547 400.593 294.393C401.595 295.199 402.432 296.192 403.056 297.316C403.546 298.037 403.885 298.849 404.051 299.705C404.051 299.705 400.655 295.911 399.075 295.911C397.495 295.911 396.077 296.707 397.072 297.316C398.025 297.774 399.033 298.109 400.07 298.311L401.476 301.11C401.476 301.11 398.08 299.866 397.072 300.911C396.065 301.956 398.08 302.292 398.08 302.292L399.473 302.491C398.491 304.135 397.879 305.973 397.682 307.878C397.751 309.887 397.95 311.89 398.279 313.874L403.827 312.319Z" fill="white" stroke="#2D124B" stroke-linecap="round" stroke-linejoin="round"/>
<path d="M400.431 308.922C400.81 307.056 401.416 305.243 402.234 303.523C403.23 301.931 405.631 300.935 407.024 299.331C408.417 297.726 409.226 295.337 410.221 296.333C411.216 297.328 410.42 299.132 409.425 300.537C408.43 301.943 405.033 305.513 404.822 308.723" fill="white"/>
<path d="M400.431 308.922C400.81 307.056 401.416 305.243 402.234 303.523C403.23 301.931 405.631 300.935 407.024 299.331C408.417 297.726 409.226 295.337 410.221 296.333C411.216 297.328 410.42 299.132 409.425 300.537C408.43 301.943 405.033 305.513 404.822 308.723" stroke="#2D124B" stroke-linecap="round" stroke-linejoin="round"/>
<path d="M396.637 318.103L397.035 312.12C398.325 311.44 399.789 311.158 401.24 311.311C403.827 311.51 404.623 312.555 404.623 312.555L404.822 319.148L396.637 318.103Z" fill="#FF6542" stroke="#2D124B" stroke-linecap="round" stroke-linejoin="round"/>
<path d="M309.669 382.53C310.015 382.194 310.32 381.818 310.577 381.41C310.577 381.41 310.577 381.535 310.651 381.721C311.895 377.989 314.147 372.59 314.147 372.59C314.147 372.59 314.819 398.043 317.033 400.754C318.737 402.869 322.009 403.466 324.497 404.001C327.831 404.71 331.177 405.407 334.549 405.892C346.255 407.584 357.986 406.9 369.667 405.395C373.075 404.959 378.698 405.183 381.161 402.285C382.416 400.693 383.076 398.713 383.027 396.687C383.027 396.002 384.383 367.664 384.383 367.664C384.383 367.664 398.975 378.524 402.036 378.188C405.096 377.852 407.124 375.128 406.788 366.992C406.452 358.857 405.544 318.961 404.573 317.095C403.603 315.229 398.129 314.894 396.089 317.27C394.049 319.646 393.104 339.363 393.104 339.363C393.104 339.363 386.61 325.244 383.898 320.827C381.186 316.411 364.728 311.162 364.728 311.162C364.728 311.162 354.378 307.765 344.364 309.918C337.009 311.388 329.942 314.043 323.44 317.78C318.352 320.666 308.338 323.378 306.633 326.935C304.929 330.493 298.833 368.174 297.477 373.1C297.079 374.506 296.631 376.061 296.233 377.728C296.404 378.66 296.68 379.57 297.054 380.44" fill="#FF6542"/>
<path d="M309.669 382.53C310.015 382.194 310.32 381.818 310.577 381.41C310.577 381.41 310.577 381.535 310.651 381.721C311.895 377.989 314.147 372.59 314.147 372.59C314.147 372.59 314.819 398.043 317.033 400.754C318.737 402.869 322.009 403.466 324.497 404.001C327.831 404.71 331.177 405.407 334.549 405.892C346.255 407.584 357.986 406.9 369.667 405.395C373.075 404.959 378.698 405.183 381.161 402.285C382.416 400.693 383.076 398.713 383.027 396.687C383.027 396.002 384.383 367.664 384.383 367.664C384.383 367.664 398.975 378.524 402.036 378.188C405.096 377.852 407.124 375.128 406.788 366.992C406.452 358.857 405.544 318.961 404.573 317.095C403.603 315.229 398.129 314.894 396.089 317.27C394.049 319.646 393.104 339.363 393.104 339.363C393.104 339.363 386.61 325.244 383.898 320.827C381.186 316.411 364.728 311.162 364.728 311.162C364.728 311.162 354.378 307.765 344.364 309.918C337.009 311.388 329.942 314.043 323.44 317.78C318.352 320.666 308.338 323.378 306.633 326.935C304.929 330.493 298.833 368.174 297.477 373.1C297.079 374.506 296.631 376.061 296.233 377.728C296.404 378.66 296.68 379.57 297.054 380.44" stroke="#2D124B" stroke-linecap="round" stroke-linejoin="round"/>
<path d="M371.259 366.457L376.372 362.265" stroke="#2D124B" stroke-miterlimit="10"/>
<path d="M336.987 394.597L367.129 369.854" stroke="#2D124B" stroke-miterlimit="10"/>
<path d="M332.869 388.713L345.807 378.139" stroke="#2D124B" stroke-miterlimit="10"/>
<path d="M310.651 396.251L303.187 410.109C302.589 411.215 302.379 412.49 302.59 413.729L306.472 436.121C306.464 436.203 306.473 436.285 306.497 436.363C306.522 436.442 306.562 436.514 306.614 436.577C306.667 436.64 306.731 436.692 306.804 436.73C306.876 436.768 306.956 436.792 307.038 436.799C307.119 436.806 307.202 436.798 307.28 436.773C307.358 436.749 307.431 436.709 307.494 436.657C307.557 436.604 307.609 436.54 307.647 436.467C307.685 436.394 307.708 436.315 307.716 436.233L314.632 417.635C314.924 416.84 315.026 415.989 314.931 415.147L312.667 396.649C312.693 396.517 312.693 396.38 312.666 396.248C312.64 396.116 312.587 395.99 312.512 395.878C312.437 395.766 312.341 395.67 312.228 395.595C312.116 395.52 311.99 395.468 311.858 395.442C311.591 395.39 311.314 395.445 311.087 395.597C310.861 395.748 310.704 395.984 310.651 396.251Z" fill="#2D124B" stroke="#2D124B" stroke-linecap="round" stroke-linejoin="round"/>
<path d="M393.091 339.363L400.605 356.767" stroke="#2D124B" stroke-linecap="round" stroke-linejoin="round"/>
<path d="M311.92 429.428C313.017 427.181 313.756 424.776 314.11 422.3C314.371 419.091 313.475 419.34 312.704 421.143C311.933 422.947 311.92 429.428 311.92 429.428Z" fill="white" stroke="#2D124B" stroke-linecap="round" stroke-linejoin="round"/>
<path d="M308.338 435.3C308.338 435.3 311.411 431.73 311.921 429.429C312.431 427.127 313.7 422.537 312.431 423.047C311.162 423.557 310.639 426.107 310.639 426.107C310.43 425.965 310.188 425.878 309.936 425.856C309.684 425.834 309.431 425.877 309.2 425.98C308.969 426.084 308.769 426.245 308.618 426.448C308.467 426.651 308.371 426.889 308.338 427.14C307.828 429.18 308.338 435.3 308.338 435.3Z" fill="white" stroke="#2D124B" stroke-linecap="round" stroke-linejoin="round"/>
<path d="M310.639 426.107C310.639 426.107 311.522 429.989 310.39 432.564" stroke="#2D124B" stroke-linecap="round" stroke-linejoin="round"/>
<path d="M384.396 367.664L385.08 345.098" stroke="#2D124B" stroke-linecap="round" stroke-linejoin="round"/>
<path d="M384.732 360.536L387.456 347.81" stroke="#2D124B" stroke-linecap="round" stroke-linejoin="round"/>
<path d="M314.148 372.59L313.463 346.964" stroke="#2D124B" stroke-linecap="round" stroke-linejoin="round"/>
<path d="M227.639 582.154C262.28 582.154 290.362 573.905 290.362 563.73C290.362 553.555 262.28 545.307 227.639 545.307C192.999 545.307 164.917 553.555 164.917 563.73C164.917 573.905 192.999 582.154 227.639 582.154Z" fill="#FF6542"/>
<path opacity="0.5" d="M227.639 582.154C262.28 582.154 290.362 573.905 290.362 563.73C290.362 553.555 262.28 545.307 227.639 545.307C192.999 545.307 164.917 553.555 164.917 563.73C164.917 573.905 192.999 582.154 227.639 582.154Z" fill="white"/>
<path d="M253.328 307.915C253.441 305.767 253.308 303.613 252.93 301.496C252.32 299.294 250.914 297.888 251.113 297.079C251.312 296.271 253.726 296.88 254.335 298.485C254.945 300.09 255.94 302.901 255.94 302.901V296.681C255.94 295.674 253.527 295.437 252.731 294.48C251.934 293.522 252.519 293.074 253.129 293.074C253.738 293.074 256.139 292.862 257.545 294.069C258.062 294.593 258.456 295.225 258.699 295.92C258.942 296.615 259.028 297.355 258.951 298.087C258.951 298.694 258.884 299.299 258.752 299.891C258.752 299.891 261.961 300.289 262.956 302.503C263.781 304.682 263.924 307.059 263.367 309.32C262.956 311.137 264.362 314.744 264.362 314.744L260.145 317.954C260.145 317.954 256.736 314.346 254.932 312.331C253.855 311.117 253.281 309.537 253.328 307.915Z" fill="white" stroke="#2D124B" stroke-linecap="round" stroke-linejoin="round"/>
<path d="M264.362 314.731L260.145 317.941C260.145 317.941 283.346 365.213 285.547 366.843C287.749 368.472 290.523 368.858 293.783 364.442C297.042 360.025 296.594 357.214 294.38 352.201C292.166 347.187 264.362 314.731 264.362 314.731Z" fill="#FF6542" stroke="#2D124B" stroke-linecap="round" stroke-linejoin="round"/>
<path d="M246.386 267.858C246.386 267.858 249.384 275.036 249.384 276.84C249.371 278.531 249.837 280.191 250.728 281.629C251.624 283.122 252.681 283.57 252.071 284.764C251.803 285.358 251.451 285.911 251.026 286.406C251.026 286.406 250.579 292.85 250.579 294.94C250.579 297.03 249.534 297.179 247.593 297.328C245.886 297.353 244.181 297.203 242.505 296.88L242.207 302.566C242.207 302.566 235.016 301.67 232.18 301.67H226.644L226.943 292.85C225.28 289.573 223.879 286.171 222.75 282.674C222.199 281.203 221.976 279.63 222.096 278.064C222.217 276.497 222.679 274.977 223.449 273.608C224.219 272.239 225.28 271.055 226.556 270.139C227.832 269.223 229.293 268.598 230.836 268.306C235.964 267.344 241.212 267.193 246.386 267.858Z" fill="white" stroke="#2D124B" stroke-linecap="round" stroke-linejoin="round"/>
<path d="M241.336 285.062C241.336 285.062 244.483 284.167 243.886 281.467C243.289 278.768 242.244 277.586 242.393 277.138C242.543 276.69 244.881 275.782 244.881 273.841C244.881 271.901 242.393 270.856 242.393 270.856C242.393 270.856 253.465 267.41 254.211 264.263C254.958 261.115 253.465 257.98 250.479 257.98C248.972 257.99 247.468 258.14 245.988 258.428C245.391 258.428 241.498 254.087 238.064 255.741C234.631 257.396 234.332 259.473 234.332 259.473C234.332 259.473 221.768 260.083 216.978 265.158C212.189 270.234 216.232 282.077 219.466 286.406C222.701 290.735 225.301 295.388 228.299 295.985C231.297 296.582 236.833 295.686 238.922 292.85C241.012 290.013 239.967 285.659 239.967 285.659L241.336 285.062Z" fill="#2D124B" stroke="#2D124B" stroke-linecap="round" stroke-linejoin="round"/>
<path d="M242.953 286.12C242.953 286.12 239.806 279.837 237.566 281.144C235.327 282.45 236.969 287.587 238.462 289.23C238.683 289.542 238.964 289.806 239.29 290.006C239.615 290.206 239.978 290.338 240.356 290.394C240.734 290.449 241.119 290.428 241.489 290.331C241.858 290.233 242.204 290.062 242.505 289.827" fill="white"/>
<path d="M242.953 286.12C242.953 286.12 239.806 279.837 237.566 281.144C235.327 282.45 236.969 287.587 238.462 289.23C238.683 289.542 238.964 289.806 239.29 290.006C239.615 290.206 239.978 290.338 240.356 290.394C240.734 290.449 241.119 290.428 241.489 290.331C241.858 290.233 242.204 290.062 242.505 289.827" stroke="#2D124B" stroke-linecap="round" stroke-linejoin="round"/>
<path d="M218.857 307.504C219.704 305.332 220.972 303.35 222.589 301.67C224.828 299.729 230.364 298.386 235.029 299.282C239.694 300.177 243.413 301.521 244.309 303.623C244.994 305.425 245.543 307.275 245.951 309.159C245.951 309.159 241.622 307.057 233.088 307.057C228.159 307.01 223.255 307.77 218.571 309.308L218.857 307.504Z" fill="#FF6542" stroke="#2D124B" stroke-linecap="round" stroke-linejoin="round"/>
<path d="M199.488 553.58C199.488 553.58 193.803 553.132 191.414 553.729C189.026 554.327 188.416 556.417 189.474 557.909C190.862 559.876 192.464 561.683 194.251 563.296C195.743 564.54 200.471 565.087 202.623 566.132C204.775 567.177 207.263 568.085 210.087 566.132C212.911 564.179 211.331 556.864 211.331 556.864C211.331 556.864 204.277 558.059 199.488 553.58Z" fill="white" stroke="#2D124B" stroke-linecap="round" stroke-linejoin="round"/>
<path d="M208.159 565.684C205.472 566.132 200.533 564.788 196.191 562.549C193.144 560.969 190.531 557.312 189.262 555.284C189.049 555.698 188.955 556.163 188.992 556.627C189.03 557.091 189.197 557.535 189.474 557.909C190.862 559.876 192.464 561.682 194.251 563.296C195.744 564.54 200.471 565.087 202.623 566.132C204.775 567.177 207.263 568.085 210.087 566.132C210.531 565.815 210.883 565.385 211.107 564.888C210.147 565.231 209.161 565.497 208.159 565.684Z" fill="white" stroke="#2D124B" stroke-linecap="round" stroke-linejoin="round"/>
<path d="M256.737 553.58C256.737 553.58 262.422 553.132 264.811 553.729C267.199 554.327 267.809 556.417 266.764 557.909C265.368 559.873 263.762 561.68 261.974 563.296C260.481 564.54 255.692 565.087 253.602 566.132C251.512 567.177 248.962 568.085 246.138 566.132C243.314 564.179 244.894 556.864 244.894 556.864C244.894 556.864 251.948 558.059 256.737 553.58Z" fill="white" stroke="#2D124B" stroke-linecap="round" stroke-linejoin="round"/>
<path d="M248.066 565.684C250.753 566.132 255.692 564.788 260.034 562.549C263.082 560.969 265.694 557.312 266.963 555.284C267.178 555.697 267.274 556.161 267.239 556.625C267.204 557.089 267.039 557.534 266.764 557.909C265.368 559.873 263.762 561.679 261.974 563.296C260.482 564.54 255.692 565.087 253.602 566.132C251.512 567.177 248.962 568.085 246.138 566.132C245.694 565.815 245.342 565.385 245.118 564.888C246.079 565.229 247.065 565.495 248.066 565.684Z" fill="white" stroke="#2D124B" stroke-linecap="round" stroke-linejoin="round"/>
<path d="M208.233 388.302C208.233 388.302 206.989 402.222 206.89 408.504C206.824 412.556 207.074 416.607 207.636 420.621L204.65 478.081C204.65 478.081 200.16 515.04 200.16 522.368C200.16 529.695 200.757 548.852 200.757 548.852C200.081 550.164 199.482 551.514 198.965 552.895C198.968 554.641 199.068 556.385 199.264 558.12C201.598 559.525 204.192 560.443 206.89 560.82C207.951 560.958 209.03 560.757 209.971 560.245C210.911 559.734 211.666 558.937 212.127 557.971C212.651 555.092 213 552.184 213.172 549.263C213.237 547.516 213.187 545.766 213.023 544.026C213.023 544.026 219.603 511.856 222.751 500.933C225.898 490.011 231.583 460.379 231.882 456.498C232.18 452.617 235.614 434.504 235.614 434.504C235.614 434.504 238.612 466.972 239.346 473.068C240.08 479.163 238.263 496.231 238.263 505.412C238.263 514.593 243.824 550.183 243.824 550.183C243.804 552.058 243.899 553.931 244.11 555.794C244.409 557.038 246.188 561.118 246.188 561.118C246.188 561.118 250.616 562.001 252.694 560.82C254.771 559.638 258.006 557.573 258.304 554.027C258.603 550.482 257.247 543.304 256.961 541.239C256.674 539.174 261.937 499.254 261.937 485.072C261.937 470.891 264.3 440.127 264.3 433.633C264.3 427.139 262.82 405.245 262.82 405.245L260.158 384.259C260.158 384.259 235.551 393.527 208.233 388.302Z" fill="#2D124B" stroke="#2D124B" stroke-linecap="round" stroke-linejoin="round"/>
<path d="M235.613 434.542L233.548 420.92H228.522" stroke="white" stroke-linecap="round" stroke-linejoin="round"/>
<path d="M198.518 316.337C198.518 316.337 164.669 367.117 165.266 369.182C165.863 371.247 198.368 388.402 198.368 388.402L198.07 381.896L185.63 365.338L203.046 347.014L198.518 316.337Z" fill="#FF6542" stroke="#2D124B" stroke-linecap="round" stroke-linejoin="round"/>
<path d="M198.07 381.908L202.747 379.979L207.723 384.396C207.723 384.396 209.452 388.016 208.184 388.314L206.94 388.613C206.94 388.613 208.345 392.021 206.143 393.029C203.942 394.037 200.72 392.83 199.314 391.623C198.159 390.376 197.21 388.952 196.502 387.406L198.07 381.908Z" fill="white" stroke="#2D124B" stroke-linecap="round" stroke-linejoin="round"/>
<path d="M204.153 381.572C204.153 381.572 205.969 383.588 205.757 384.583C205.546 385.578 204.762 388.999 203.954 389.198C203.145 389.397 202.349 387.792 202.548 387.195C202.717 386.602 202.854 385.999 202.958 385.391C202.958 385.391 201.142 386.797 200.147 385.988" fill="white"/>
<path d="M204.153 381.572C204.153 381.572 205.969 383.588 205.757 384.583C205.546 385.578 204.762 388.999 203.954 389.198C203.145 389.397 202.349 387.792 202.548 387.195C202.717 386.602 202.854 385.999 202.958 385.391C202.958 385.391 201.142 386.797 200.147 385.988" stroke="#2D124B" stroke-linecap="round" stroke-linejoin="round"/>
<path d="M242.356 306.024C237.307 305.213 232.169 305.112 227.092 305.725C220.626 306.609 214.333 308.476 208.432 311.261C204.7 313.053 198.567 315.752 198.567 316.349C198.567 316.946 207.275 372.454 207.275 372.454C207.275 372.454 207.275 386.822 208.171 388.912C209.066 391.002 211.766 391.313 218.347 392.059C228.23 392.668 238.149 392.368 247.979 391.163C253.813 390.106 258.901 389.21 259.797 386.523C260.692 383.836 259.498 376.646 259.498 376.646L262.546 318.464C259.945 315.364 256.741 312.824 253.129 311C249.639 309.13 246.042 307.468 242.356 306.024Z" fill="#FF6542" stroke="#2D124B" stroke-linecap="round" stroke-linejoin="round"/>
<path d="M291.37 351.007L262.546 318.464L260.531 350.559C260.531 350.559 282.848 369.567 287.899 368.97C292.949 368.373 293.82 364.492 293.82 364.492" fill="#FF6542"/>
<path d="M291.37 351.007L262.546 318.464L260.531 350.559C260.531 350.559 282.848 369.567 287.899 368.97C292.949 368.373 293.82 364.492 293.82 364.492" stroke="#2D124B" stroke-linecap="round" stroke-linejoin="round"/>
</svg>
