<svg width="301" height="300" viewBox="0 0 301 300" fill="none" xmlns="http://www.w3.org/2000/svg">
<path opacity="0.7" d="M41.2575 100.254C41.2575 100.254 24.5295 143.454 48.0375 186.954C71.5455 230.454 119.966 253.434 158.72 273.084C197.474 292.734 237.716 283.164 256.838 250.98C275.96 218.796 249.734 195.822 249.698 149.928C249.662 104.034 256.568 91.884 231.698 53.112C206.828 14.34 145.862 5.75397 99.7575 34.512C53.6535 63.27 41.2575 100.254 41.2575 100.254Z" fill="white"/>
<path d="M79.6997 256.542C93.8597 271.494 128.624 266.016 143.684 256.542C192.584 225.792 278.252 174.6 282.134 100.44C283.784 68.922 255.986 52.368 244.376 47.514C216.5 35.85 185.9 32.352 155.69 31.002C124.148 29.592 90.2897 30.69 61.9037 46.08C51.1397 51.906 40.9877 59.4 34.0397 69.6C26.9837 79.968 22.9217 92.316 21.8417 104.778C20.1077 124.878 25.5137 145.032 33.6917 163.476C41.8697 181.92 52.7717 198.996 62.7797 216.516C69.3137 227.934 67.7957 243.948 79.6997 256.542Z" fill="#FF3E15"/>
<path opacity="0.7" d="M79.6997 256.542C93.8597 271.494 128.624 266.016 143.684 256.542C192.584 225.792 278.252 174.6 282.134 100.44C283.784 68.922 255.986 52.368 244.376 47.514C216.5 35.85 185.9 32.352 155.69 31.002C124.148 29.592 90.2897 30.69 61.9037 46.08C51.1397 51.906 40.9877 59.4 34.0397 69.6C26.9837 79.968 22.9217 92.316 21.8417 104.778C20.1077 124.878 25.5137 145.032 33.6917 163.476C41.8697 181.92 52.7717 198.996 62.7797 216.516C69.3137 227.934 67.7957 243.948 79.6997 256.542Z" fill="white"/>
<path d="M85.2266 84.3681L56.4554 75.6768C55.3388 75.3395 54.1602 75.9713 53.8229 77.0879L48.7055 94.028C48.3682 95.1446 48.9999 96.3232 50.1165 96.6605L78.8877 105.352C80.0043 105.689 81.1829 105.057 81.5202 103.941L86.6376 87.0006C86.9749 85.8841 86.3431 84.7054 85.2266 84.3681Z" stroke="#263238" stroke-width="1.00285" stroke-miterlimit="10"/>
<path d="M52.8076 79.704L85.5136 89.616" stroke="#263238" stroke-miterlimit="10"/>
<path d="M51.8115 82.986L84.5235 92.898" stroke="#263238" stroke-miterlimit="10"/>
<path d="M74.5701 99.036C74.4869 99.3122 74.4604 99.6024 74.4924 99.8891C74.5244 100.176 74.6141 100.453 74.7561 100.704C74.2658 100.946 73.7018 100.993 73.1781 100.836C72.8446 100.735 72.5409 100.554 72.2936 100.309C72.0463 100.063 71.863 99.761 71.7597 99.4283C71.6565 99.0955 71.6364 98.7425 71.7014 98.4002C71.7663 98.0579 71.9142 97.7367 72.1321 97.4649C72.35 97.193 72.6312 96.9788 72.9512 96.8409C73.2712 96.703 73.6201 96.6458 73.9673 96.6741C74.3146 96.7025 74.6496 96.8156 74.943 97.0035C75.2364 97.1914 75.4792 97.4485 75.6501 97.752C75.3935 97.8832 75.1658 98.0644 74.9803 98.2849C74.7949 98.5054 74.6554 98.7608 74.5701 99.036Z" stroke="#263238" stroke-miterlimit="10"/>
<path d="M78.6441 100.272C78.5213 100.675 78.2818 101.033 77.9558 101.299C77.6298 101.566 77.232 101.731 76.8126 101.771C76.3933 101.812 75.9713 101.728 75.6 101.528C75.2287 101.329 74.9248 101.025 74.7267 100.653C74.5286 100.281 74.4452 99.8587 74.4871 99.4395C74.529 99.0203 74.6943 98.6229 74.9621 98.2976C75.2298 97.9723 75.588 97.7337 75.9914 97.6121C76.3948 97.4904 76.8251 97.4911 77.2281 97.614C77.7683 97.7788 78.2209 98.1514 78.4864 98.6498C78.752 99.1483 78.8087 99.7318 78.6441 100.272Z" stroke="#263238" stroke-miterlimit="10"/>
<path d="M280.782 125.26L256.992 118.05C255.879 117.713 254.703 118.342 254.366 119.455L250.196 133.213C249.859 134.326 250.488 135.502 251.601 135.839L275.39 143.049C276.504 143.386 277.679 142.757 278.017 141.644L282.186 127.886C282.524 126.773 281.895 125.597 280.782 125.26Z" stroke="#263238" stroke-miterlimit="10"/>
<path d="M253.724 121.572L281.546 130.002" stroke="#263238" stroke-miterlimit="10"/>
<path d="M252.878 124.368L280.694 132.798" stroke="#263238" stroke-miterlimit="10"/>
<path d="M272.234 138C272.162 138.234 272.139 138.481 272.166 138.724C272.193 138.968 272.269 139.203 272.39 139.416C272.127 139.544 271.838 139.606 271.546 139.596C271.254 139.587 270.968 139.507 270.714 139.363C270.46 139.219 270.245 139.015 270.088 138.769C269.93 138.523 269.834 138.243 269.809 137.952C269.784 137.661 269.83 137.368 269.944 137.099C270.057 136.83 270.234 136.592 270.46 136.407C270.686 136.221 270.953 136.093 271.239 136.034C271.525 135.975 271.821 135.987 272.102 136.068C272.547 136.202 272.924 136.503 273.152 136.908C272.933 137.018 272.738 137.171 272.58 137.359C272.422 137.547 272.305 137.765 272.234 138V138Z" stroke="#263238" stroke-miterlimit="10"/>
<path d="M275.696 139.068C275.59 139.407 275.386 139.707 275.11 139.93C274.834 140.153 274.498 140.29 274.144 140.322C273.791 140.355 273.435 140.282 273.123 140.113C272.811 139.945 272.555 139.687 272.389 139.373C272.222 139.06 272.152 138.704 272.188 138.351C272.223 137.997 272.362 137.662 272.587 137.388C272.813 137.113 273.114 136.912 273.454 136.808C273.794 136.705 274.156 136.704 274.496 136.806C274.725 136.874 274.937 136.988 275.121 137.139C275.305 137.29 275.457 137.476 275.569 137.686C275.68 137.897 275.749 138.127 275.771 138.364C275.793 138.602 275.768 138.841 275.696 139.068V139.068Z" stroke="#263238" stroke-miterlimit="10"/>
<path d="M242.708 59.5286L207.979 75.4289L216.251 93.4972L250.98 77.597L242.708 59.5286Z" stroke="#263238" stroke-miterlimit="10"/>
<path d="M247.994 75L242.738 63.522C242.247 63.7462 241.687 63.7666 241.181 63.5788C240.675 63.391 240.264 63.0103 240.038 62.52L211.964 75.372C212.188 75.8631 212.209 76.4229 212.021 76.929C211.833 77.4351 211.452 77.8461 210.962 78.072L216.218 89.55C216.461 89.4384 216.724 89.3759 216.992 89.3662C217.26 89.3565 217.526 89.3997 217.777 89.4933C218.028 89.587 218.258 89.7292 218.454 89.9119C218.649 90.0946 218.807 90.3142 218.918 90.558L246.986 77.7C246.874 77.4566 246.812 77.1936 246.802 76.926C246.792 76.6584 246.836 76.3915 246.929 76.1407C247.023 75.8898 247.165 75.6599 247.348 75.4642C247.531 75.2684 247.75 75.1107 247.994 75Z" stroke="#263238" stroke-miterlimit="10"/>
<path d="M232.659 80.6574C234.945 78.9012 235.375 75.6241 233.618 73.3379C231.862 71.0516 228.585 70.6219 226.299 72.3781C224.013 74.1343 223.583 77.4114 225.339 79.6977C227.095 81.984 230.372 82.4136 232.659 80.6574Z" stroke="#263238" stroke-miterlimit="10"/>
<path d="M230.9 79.044L231.29 79.896L230.918 80.064L230.534 79.224C229.877 79.51 229.14 79.5567 228.452 79.356V78.834C229.06 79.018 229.713 78.9862 230.3 78.744L229.418 76.8C228.506 76.974 227.564 77.106 227.114 76.122C226.79 75.414 227.018 74.562 228.11 73.956L227.72 73.098L228.092 72.93L228.5 73.8C229.04 73.5658 229.634 73.4869 230.216 73.572V74.094C229.704 74.02 229.181 74.0799 228.698 74.268L229.598 76.236C230.528 76.05 231.518 75.882 231.998 76.878C232.298 77.568 232.04 78.438 230.9 79.044ZM229.184 76.278L228.332 74.4C227.594 74.814 227.432 75.366 227.648 75.834C227.9 76.422 228.5 76.398 229.178 76.278H229.184ZM231.446 77.124C231.182 76.524 230.546 76.584 229.838 76.722L230.684 78.576C231.5 78.144 231.656 77.598 231.44 77.124H231.446Z" fill="#263238"/>
<path d="M51.0458 141.835L24.3398 144.239L25.5899 158.129L52.2959 155.725L51.0458 141.835Z" stroke="#263238" stroke-width="1.00404" stroke-miterlimit="10"/>
<path d="M50.1498 152.916L49.3938 144.126C49.0176 144.158 48.6443 144.039 48.3553 143.796C48.0664 143.553 47.8853 143.206 47.8518 142.83L26.3478 144.69C26.3778 145.066 26.2586 145.438 26.0161 145.727C25.7735 146.015 25.4271 146.197 25.0518 146.232L25.8078 155.022C25.9942 155.006 26.182 155.026 26.3605 155.082C26.5389 155.139 26.7045 155.23 26.8478 155.35C26.991 155.47 27.1091 155.618 27.1953 155.784C27.2814 155.95 27.3339 156.132 27.3498 156.318L48.8538 154.458C48.8237 154.082 48.9429 153.71 49.1854 153.421C49.428 153.133 49.7744 152.951 50.1498 152.916V152.916Z" stroke="#263238" stroke-miterlimit="10"/>
<path d="M41.2396 149.262C41.3022 149.982 41.1498 150.705 40.8018 151.338C40.4537 151.972 39.9256 152.488 39.2842 152.821C38.6428 153.154 37.917 153.29 37.1985 153.21C36.4801 153.131 35.8013 152.841 35.248 152.375C34.6947 151.91 34.2918 151.292 34.0903 150.597C33.8887 149.903 33.8975 149.165 34.1157 148.476C34.3338 147.787 34.7514 147.178 35.3156 146.726C35.8799 146.274 36.5654 146 37.2856 145.938C37.7636 145.896 38.2452 145.949 38.7028 146.093C39.1603 146.238 39.5849 146.471 39.9522 146.78C40.3195 147.088 40.6223 147.467 40.8432 147.893C41.0641 148.319 41.1988 148.784 41.2396 149.262V149.262Z" stroke="#263238" stroke-miterlimit="10"/>
<path d="M37.9401 151.578L37.9941 152.232H37.7121L37.6521 151.584C37.1535 151.617 36.6589 151.475 36.2541 151.182L36.3861 150.846C36.7441 151.106 37.1799 151.237 37.6221 151.218L37.4961 149.724C36.8541 149.628 36.2001 149.49 36.1401 148.74C36.0921 148.194 36.4401 147.684 37.3041 147.54L37.2501 146.886H37.5321L37.5861 147.528C38.0022 147.501 38.4176 147.591 38.7861 147.786L38.6721 148.128C38.3519 147.962 37.9948 147.879 37.6341 147.888L37.7601 149.394C38.4141 149.49 39.1101 149.616 39.1761 150.378C39.2121 150.936 38.8341 151.446 37.9401 151.578ZM37.4601 149.352L37.3341 147.93C36.7341 148.032 36.5181 148.356 36.5481 148.716C36.5781 149.076 36.9801 149.274 37.4601 149.352ZM38.7501 150.444C38.7081 149.994 38.2821 149.844 37.7841 149.796L37.9041 151.218C38.5281 151.116 38.7801 150.804 38.7501 150.444Z" fill="#263238"/>
<path d="M267.098 67.626C269.981 67.626 272.318 65.289 272.318 62.406C272.318 59.5231 269.981 57.186 267.098 57.186C264.215 57.186 261.878 59.5231 261.878 62.406C261.878 65.289 264.215 67.626 267.098 67.626Z" stroke="#263238" stroke-miterlimit="10"/>
<path d="M267.332 65.304V66.24H266.9V65.31C266.185 65.2958 265.496 65.0351 264.95 64.572L265.184 64.104C265.661 64.5229 266.266 64.7682 266.9 64.8V62.658C266 62.436 265.1 62.16 265.1 61.08C265.1 60.3 265.664 59.622 266.9 59.526V58.572H267.308V59.502C267.897 59.5144 268.47 59.6911 268.964 60.012L268.76 60.492C268.325 60.2113 267.825 60.048 267.308 60.018V62.178C268.226 62.4 269.198 62.658 269.198 63.756C269.222 64.542 268.628 65.232 267.332 65.304ZM266.924 62.07V60.036C266.084 60.108 265.724 60.54 265.724 61.056C265.7 61.674 266.252 61.902 266.9 62.07H266.924ZM268.628 63.786C268.628 63.144 268.028 62.922 267.332 62.748V64.8C268.226 64.722 268.628 64.308 268.628 63.786Z" fill="#263238"/>
<path d="M232.717 132.241C235.523 131.58 237.261 128.769 236.6 125.963C235.939 123.157 233.128 121.418 230.322 122.079C227.516 122.74 225.777 125.551 226.439 128.357C227.1 131.163 229.911 132.902 232.717 132.241Z" stroke="#263238" stroke-miterlimit="10"/>
<path d="M230.204 129.744L229.718 130.542L229.37 130.326L229.856 129.534C229.252 129.15 228.801 128.566 228.584 127.884L229.028 127.608C229.216 128.212 229.603 128.734 230.126 129.09L231.254 127.26C230.6 126.606 229.97 125.892 230.534 124.974C230.942 124.308 231.776 124.026 232.892 124.596L233.384 123.792L233.732 124.008L233.246 124.8C233.738 125.121 234.134 125.568 234.392 126.096L233.966 126.402C233.74 125.937 233.399 125.536 232.976 125.238L231.842 127.08C232.514 127.752 233.204 128.478 232.628 129.414C232.214 130.086 231.35 130.356 230.204 129.744ZM231.554 126.744L232.616 125.01C231.866 124.632 231.32 124.8 231.05 125.238C230.726 125.796 231.068 126.282 231.554 126.774V126.744ZM232.106 129.096C232.442 128.55 232.052 128.052 231.542 127.536L230.474 129.276C231.272 129.72 231.83 129.6 232.1 129.126L232.106 129.096Z" fill="#263238"/>
<path d="M156.608 26.4C157.037 27.3391 157.178 28.3843 157.012 29.4033C156.847 30.4223 156.383 31.3695 155.68 32.125C154.976 32.8806 154.065 33.4105 153.06 33.6479C152.055 33.8853 151.003 33.8195 150.036 33.4588C149.068 33.0981 148.23 32.4586 147.626 31.6213C147.022 30.784 146.68 29.7865 146.643 28.7548C146.606 27.7231 146.876 26.7036 147.418 25.8252C147.961 24.9469 148.751 24.249 149.69 23.82C150.314 23.5342 150.987 23.3743 151.673 23.3493C152.358 23.3244 153.042 23.4349 153.685 23.6746C154.327 23.9142 154.916 24.2783 155.418 24.746C155.92 25.2137 156.324 25.7757 156.608 26.4V26.4Z" stroke="#263238" stroke-miterlimit="10"/>
<path d="M153.277 31.098L153.667 31.95L153.295 32.124L152.899 31.278C152.242 31.564 151.506 31.6107 150.817 31.41V30.888C151.423 31.071 152.073 31.0413 152.659 30.804L151.771 28.848C150.859 29.022 149.917 29.148 149.467 28.17C149.143 27.456 149.371 26.61 150.469 26.004L150.079 25.146L150.445 24.978L150.835 25.824C151.375 25.5898 151.969 25.5109 152.551 25.596V26.118C152.039 26.0453 151.516 26.1052 151.033 26.292L151.933 28.26C152.863 28.074 153.853 27.912 154.333 28.902C154.699 29.622 154.423 30.492 153.277 31.098ZM151.561 28.332L150.715 26.478C149.977 26.892 149.815 27.444 150.031 27.906C150.289 28.47 150.883 28.452 151.561 28.332ZM153.823 29.178C153.553 28.578 152.923 28.644 152.215 28.776L153.061 30.63C153.847 30.198 154.039 29.658 153.823 29.178Z" fill="#263238"/>
<path d="M139.028 237.798C139.673 239.209 139.884 240.779 139.636 242.31C139.387 243.841 138.691 245.264 137.634 246.399C136.577 247.534 135.207 248.33 133.698 248.687C132.189 249.044 130.607 248.945 129.154 248.403C127.701 247.861 126.441 246.9 125.534 245.642C124.627 244.384 124.113 242.885 124.058 241.335C124.002 239.785 124.408 238.254 125.223 236.934C126.038 235.615 127.226 234.566 128.636 233.922C129.573 233.494 130.585 233.255 131.614 233.218C132.644 233.181 133.67 233.348 134.635 233.708C135.6 234.067 136.485 234.614 137.239 235.316C137.992 236.018 138.601 236.861 139.028 237.798V237.798Z" stroke="#263238" stroke-miterlimit="10"/>
<path d="M134.018 244.866L134.618 246.15L134.06 246.402L133.46 245.13C132.474 245.562 131.367 245.634 130.334 245.334L130.37 244.554C131.28 244.825 132.256 244.777 133.136 244.416L131.798 241.488C130.436 241.746 129.014 241.938 128.342 240.468C127.85 239.4 128.198 238.122 129.842 237.21L129.242 235.932L129.794 235.674L130.394 236.946C131.206 236.597 132.099 236.478 132.974 236.604V237.384C132.205 237.276 131.422 237.366 130.7 237.648L132.044 240.6C133.442 240.324 134.93 240.078 135.614 241.566C136.13 242.652 135.746 243.96 134.018 244.866ZM131.45 240.708L130.172 237.924C129.074 238.524 128.828 239.37 129.152 240.078C129.536 240.924 130.424 240.894 131.45 240.708ZM134.846 241.986C134.444 241.104 133.49 241.176 132.446 241.386L133.718 244.17C134.9 243.516 135.17 242.7 134.846 241.986Z" fill="#263238"/>
<path d="M26.696 115.938C25.5308 116.961 24.0883 117.616 22.5509 117.82C21.0136 118.024 19.4503 117.767 18.0587 117.083C16.6672 116.398 15.5099 115.316 14.7332 113.974C13.9565 112.632 13.5952 111.089 13.695 109.541C13.7948 107.994 14.3512 106.511 15.294 105.279C16.2367 104.048 17.5234 103.123 18.9913 102.623C20.4593 102.123 22.0426 102.069 23.5411 102.469C25.0396 102.868 26.3859 103.703 27.41 104.868C28.0902 105.642 28.6113 106.542 28.9436 107.517C29.2759 108.492 29.4128 109.523 29.3465 110.551C29.2801 111.579 29.0119 112.584 28.5572 113.508C28.1024 114.432 27.47 115.258 26.696 115.938Z" stroke="#263238" stroke-miterlimit="10"/>
<path d="M18.5003 113.178L17.4443 114.108L17.0363 113.646L18.0863 112.728C17.3906 111.905 17.0025 110.866 16.9883 109.788L17.7503 109.596C17.7507 110.541 18.0699 111.459 18.6563 112.2L21.0563 110.076C20.4143 108.846 19.8203 107.538 21.0563 106.476C21.9443 105.702 23.2643 105.666 24.6083 106.974L25.7003 106.05L26.1023 106.506L25.0523 107.43C25.6108 108.109 25.972 108.929 26.0963 109.8L25.3523 110.046C25.2328 109.279 24.9211 108.554 24.4463 107.94L22.0043 110.082C22.6703 111.336 23.3363 112.692 22.1063 113.778C21.2123 114.558 19.8503 114.6 18.5003 113.178ZM21.7403 109.518L24.0383 107.496C23.1263 106.62 22.2383 106.626 21.6863 107.136C20.9663 107.748 21.2543 108.6 21.7223 109.518H21.7403ZM21.4943 113.118C22.2263 112.482 21.8843 111.588 21.3803 110.628L19.0823 112.65C20.0243 113.616 20.9003 113.652 21.5003 113.136L21.4943 113.118Z" fill="#263238"/>
<path d="M62.5955 182.826C62.6792 180.735 61.0519 178.972 58.961 178.888C56.87 178.804 55.1071 180.432 55.0235 182.523C54.9399 184.614 56.5671 186.376 58.6581 186.46C60.749 186.544 62.5119 184.916 62.5955 182.826Z" stroke="#263238" stroke-width="1.0008" stroke-miterlimit="10"/>
<path d="M59.8999 183.408L60.3319 183.93L60.1099 184.116L59.6779 183.6C59.272 183.926 58.7647 184.1 58.2439 184.092L58.1599 183.72C58.6179 183.732 59.0664 183.588 59.4319 183.312L58.4359 182.112C57.8359 182.406 57.1999 182.676 56.6959 182.076C56.3359 181.644 56.3359 181.002 56.9839 180.366L56.5459 179.844L56.7739 179.658L57.2059 180.174C57.54 179.909 57.9406 179.741 58.3639 179.688L58.4719 180.048C58.1011 180.099 57.7486 180.242 57.4459 180.462L58.4479 181.662C59.0479 181.356 59.7259 181.062 60.2479 181.662C60.6139 182.106 60.6019 182.766 59.8999 183.408ZM58.1839 181.8L57.2359 180.666C56.8039 181.098 56.7979 181.512 57.0319 181.8C57.2659 182.088 57.7339 182.01 58.1839 181.8ZM59.9299 181.962C59.6299 181.608 59.1979 181.758 58.7299 181.992L59.6779 183.126C60.1399 182.67 60.1699 182.25 59.9299 181.956V181.962Z" fill="#263238"/>
<path d="M179.054 257.502C179.533 258.077 179.831 258.782 179.909 259.526C179.988 260.271 179.844 261.022 179.496 261.685C179.148 262.348 178.611 262.892 177.953 263.25C177.295 263.608 176.546 263.762 175.801 263.694C175.055 263.627 174.347 263.339 173.764 262.868C173.182 262.398 172.752 261.765 172.53 261.05C172.307 260.335 172.301 259.571 172.513 258.853C172.725 258.135 173.145 257.495 173.72 257.016C174.493 256.374 175.488 256.065 176.488 256.156C177.488 256.247 178.411 256.731 179.054 257.502V257.502Z" stroke="#263238" stroke-miterlimit="10"/>
<path d="M177.614 261.432L178.052 261.954L177.824 262.14L177.392 261.624C176.988 261.95 176.483 262.124 175.964 262.116L175.88 261.744C176.338 261.759 176.787 261.615 177.152 261.336L176.156 260.136C175.556 260.43 174.914 260.7 174.416 260.1C174.05 259.668 174.05 259.026 174.698 258.39L174.266 257.868L174.494 257.682L174.926 258.198C175.258 257.93 175.66 257.762 176.084 257.712L176.192 258.072C175.819 258.123 175.465 258.266 175.16 258.486L176.168 259.686C176.768 259.38 177.446 259.086 177.968 259.686C178.316 260.13 178.304 260.79 177.614 261.432ZM175.892 259.8L174.944 258.666C174.506 259.098 174.5 259.512 174.74 259.8C174.98 260.088 175.436 260.034 175.892 259.8ZM177.632 259.968C177.332 259.608 176.9 259.758 176.432 259.968L177.38 261.102C177.848 260.694 177.878 260.274 177.632 259.986V259.968Z" fill="#263238"/>
<path d="M75.432 41.8102C75.623 39.728 74.0898 37.8852 72.0076 37.6943C69.9254 37.5033 68.0826 39.0365 67.8917 41.1187C67.7007 43.2009 69.2339 45.0437 71.3161 45.2346C73.3983 45.4256 75.2411 43.8924 75.432 41.8102Z" stroke="#263238" stroke-miterlimit="10"/>
<path d="M73.142 42.972L73.574 43.494L73.346 43.68L72.914 43.164C72.5109 43.4912 72.0052 43.6655 71.486 43.656L71.402 43.284C71.86 43.296 72.3085 43.1522 72.674 42.876L71.678 41.676C71.078 41.97 70.436 42.24 69.938 41.64C69.578 41.208 69.572 40.566 70.226 39.93L69.788 39.408L70.016 39.222L70.448 39.738C70.7814 39.4716 71.1824 39.3033 71.606 39.252L71.714 39.612C71.3432 39.6634 70.9907 39.8056 70.688 40.026L71.69 41.226C72.29 40.92 72.968 40.626 73.49 41.226C73.844 41.67 73.826 42.33 73.142 42.972ZM71.414 41.358L70.466 40.2C70.034 40.632 70.022 41.046 70.262 41.334C70.502 41.622 70.958 41.574 71.414 41.358ZM73.16 41.52C72.86 41.166 72.422 41.316 71.96 41.52L72.908 42.654C73.37 42.234 73.4 41.814 73.16 41.52Z" fill="#263238"/>
<path opacity="0.2" d="M156.986 196.686C156.986 196.686 152.36 220.164 123.986 225.486C123.986 225.486 116.576 231.396 114.11 234.894C111.644 238.392 98.5101 244.338 85.1301 262.89C71.7501 281.442 51.8301 222.528 51.8301 222.528L95.8581 165.348L156.986 196.686Z" fill="black" fill-opacity="0.7"/>
<path d="M182.204 86.448C182.204 86.448 197.504 78.966 200.87 80.256C204.236 81.546 207.47 89.286 194.6 96.696C181.73 104.106 185.57 117.912 185.57 117.912H194.75C194.75 117.912 200.258 120.156 202.4 123.042C204.542 125.928 206.072 135.768 207.296 139.104C208.52 142.44 207.896 145.782 204.542 146.868C204.542 146.868 202.4 156.204 203.012 160.344C203.624 164.484 203.318 167.148 199.34 167.652C198.339 167.756 197.328 167.642 196.375 167.316C195.423 166.991 194.553 166.462 193.825 165.767C193.098 165.072 192.53 164.227 192.161 163.29C191.792 162.354 191.632 161.349 191.69 160.344L188.63 171.432L190.772 175.692C193.798 176.863 196.595 178.557 199.034 180.696C203.318 184.368 207.602 185.37 206.378 189.462C205.154 193.554 202.706 197.964 189.854 192.852C177.002 187.74 166.292 167.652 166.292 167.652L158.57 97.608L182.204 86.448Z" fill="white"/>
<path opacity="0.4" d="M198.308 126.684C191.372 136.14 199.046 147.03 199.046 147.03C199.046 147.03 194.246 149.706 194.108 156.534C194.054 159.372 194.768 163.338 195.62 167.01C194.373 166.421 193.332 165.47 192.632 164.281C191.932 163.092 191.606 161.72 191.696 160.344L188.63 171.432L190.772 175.686C193.026 176.548 195.15 177.717 197.084 179.16C195.182 183.528 194.6 188.928 194.768 194.496C193.097 194.052 191.456 193.503 189.854 192.852C177.002 187.734 166.292 167.652 166.292 167.652L158.57 97.6019L182.204 86.4479C182.204 86.4479 190.562 82.3619 196.286 80.7479C195.842 86.0999 196.886 91.6379 197.642 94.7219C196.666 95.4364 195.65 96.0954 194.6 96.6959C181.748 104.106 185.57 117.912 185.57 117.912H194.756C194.756 117.912 199.988 120.048 202.232 122.826C200.698 123.859 199.367 125.167 198.308 126.684Z" fill="#FF3E15"/>
<path d="M158.3 185.4C158.3 185.4 141.656 218.034 111.656 225.438C111.656 225.438 110.51 231.894 105.434 234.666C102.722 236.142 91.7779 252.54 82.1719 267.51L28.9639 234.87C32.2399 231.63 35.9719 227.898 39.7639 224.004C50.8639 212.688 62.7079 200.004 66.3319 193.728C69.5719 188.148 73.6699 178.464 77.2399 169.362C81.8119 157.722 85.5319 147.03 85.5319 147.03L103.268 127.314L131.15 96.312L132.35 100.278L158.3 185.4Z" fill="white"/>
<path opacity="0.4" d="M131.174 96.312L158.3 185.4C158.3 185.4 141.656 218.034 111.656 225.438C111.656 225.438 110.51 231.894 105.434 234.666C102.998 235.992 93.9322 249.342 85.1602 262.866C88.4122 251.706 97.8262 233.916 97.8262 233.916C91.7842 226.758 93.5482 219.216 95.9662 221.364C98.3842 223.512 104.462 229.548 104.846 229.926C102.176 226.782 101.558 221.856 101.558 221.856C101.558 221.856 109.046 226.836 109.652 218.856C110.258 210.876 105.164 191.376 105.164 191.376L91.7902 140.1L131.174 96.312Z" fill="#FF3E15"/>
<path d="M158.57 97.608L182.204 86.448C182.204 86.448 197.504 78.966 200.87 80.256C204.236 81.546 207.47 89.286 194.6 96.696C181.73 104.106 185.57 117.912 185.57 117.912H194.75C194.75 117.912 200.258 120.156 202.4 123.042C204.542 125.928 206.072 135.768 207.296 139.104C208.52 142.44 207.896 145.782 204.542 146.868C204.542 146.868 202.4 156.204 203.012 160.344C203.624 164.484 203.318 167.148 199.34 167.652C198.339 167.756 197.328 167.642 196.375 167.316C195.423 166.991 194.553 166.462 193.825 165.767C193.098 165.072 192.53 164.227 192.161 163.29C191.792 162.354 191.632 161.349 191.69 160.344L188.63 171.432L190.772 175.692C193.798 176.863 196.595 178.557 199.034 180.696C203.318 184.368 207.602 185.37 206.378 189.462C205.154 193.554 202.706 197.964 189.854 192.852C177.002 187.74 166.292 167.652 166.292 167.652" stroke="#263238" stroke-linecap="round" stroke-linejoin="round"/>
<path d="M204.542 146.868C199.952 148.11 194.6 147.192 192.608 139.068C190.616 130.944 194.6 122.268 197.198 121.47" stroke="#263238" stroke-linecap="round" stroke-linejoin="round"/>
<path d="M191.689 160.344C191.689 160.344 191.383 149.898 195.211 147.318" stroke="#263238" stroke-linecap="round" stroke-linejoin="round"/>
<path opacity="0.4" d="M80.0721 212.226C80.0721 212.226 68.8581 210.828 66.3561 205.812C64.2861 201.66 53.0661 217.212 39.7881 224.004C50.8881 212.688 62.7321 200.004 66.3561 193.728C69.5961 188.148 73.6941 178.464 77.2641 169.362C77.0841 176.91 73.0641 188.466 74.2101 194.484C72.9821 194.809 71.9315 195.604 71.2858 196.698C70.6401 197.792 70.4512 199.096 70.7601 200.328C71.6181 205.11 80.0721 212.226 80.0721 212.226Z" fill="#FF3E15"/>
<path d="M158.3 185.4C158.3 185.4 141.656 218.034 111.65 225.438C111.65 225.438 110.51 231.894 105.434 234.666C102.722 236.142 91.784 252.54 82.166 267.51" stroke="#263238" stroke-linecap="round" stroke-linejoin="round"/>
<path d="M28.9639 234.87C41.7799 222.204 61.4779 202.122 66.3559 193.728C73.7359 181.026 85.5559 147.024 85.5559 147.024L131.156 96.312" stroke="#263238" stroke-linecap="round" stroke-linejoin="round"/>
<path d="M105.134 135.042C105.134 135.042 112.142 141.318 114.134 147.042" stroke="#263238" stroke-linecap="round" stroke-linejoin="round"/>
<path d="M187.856 43.632H112.454C110.224 43.632 108.416 45.4398 108.416 47.67V208.188C108.416 210.418 110.224 212.226 112.454 212.226H187.856C190.086 212.226 191.894 210.418 191.894 208.188V47.67C191.894 45.4398 190.086 43.632 187.856 43.632Z" fill="#263238"/>
<path d="M166.7 48.2219L165.104 51.1439C164.935 51.461 164.684 51.7266 164.376 51.9125C164.069 52.0984 163.717 52.1977 163.358 52.1999H136.958C136.599 52.198 136.248 52.1002 135.94 51.9167C135.632 51.7331 135.378 51.4704 135.206 51.1559L133.616 48.2339C133.445 47.9182 133.192 47.6545 132.884 47.4707C132.575 47.2869 132.223 47.1899 131.864 47.1899H113.414C113.151 47.1907 112.891 47.2434 112.648 47.3449C112.406 47.4464 112.186 47.5948 112.001 47.7815C111.816 47.9682 111.669 48.1896 111.57 48.433C111.471 48.6764 111.42 48.9371 111.422 49.1999V207C111.422 207.529 111.632 208.036 112.005 208.411C112.378 208.785 112.885 208.996 113.414 208.998H186.89C187.153 209 187.414 208.949 187.658 208.849C187.902 208.75 188.124 208.603 188.311 208.417C188.497 208.231 188.646 208.011 188.747 207.767C188.848 207.524 188.9 207.263 188.9 207V49.1999C188.9 48.67 188.689 48.1618 188.315 47.7871C187.94 47.4124 187.432 47.2019 186.902 47.2019H168.458C168.1 47.1985 167.748 47.2914 167.439 47.4709C167.13 47.6503 166.874 47.9098 166.7 48.2219Z" fill="#FF3E15" stroke="#263238" stroke-linecap="round" stroke-linejoin="round"/>
<path d="M144.428 49.638C145.021 49.638 145.502 49.1571 145.502 48.564C145.502 47.9708 145.021 47.49 144.428 47.49C143.834 47.49 143.354 47.9708 143.354 48.564C143.354 49.1571 143.834 49.638 144.428 49.638Z" stroke="white" stroke-miterlimit="10"/>
<path d="M156.95 48.564C156.949 48.6954 156.909 48.8236 156.835 48.9323C156.761 49.0411 156.657 49.1255 156.535 49.175C156.413 49.2245 156.279 49.2368 156.151 49.2104C156.022 49.1841 155.904 49.1202 155.811 49.0268C155.719 48.9334 155.656 48.8147 155.631 48.6857C155.605 48.5567 155.619 48.4231 155.669 48.3017C155.72 48.1804 155.805 48.0767 155.915 48.0038C156.024 47.9309 156.153 47.892 156.284 47.892C156.372 47.892 156.459 47.9094 156.54 47.9432C156.622 47.9771 156.695 48.0267 156.757 48.0892C156.819 48.1516 156.868 48.2258 156.901 48.3073C156.934 48.3888 156.951 48.476 156.95 48.564V48.564Z" stroke="white" stroke-miterlimit="10"/>
<path d="M153.962 48.1439H147.434C147.379 48.1439 147.324 48.1548 147.274 48.176C147.223 48.1972 147.177 48.2282 147.139 48.2673C147.1 48.3064 147.07 48.3527 147.049 48.4036C147.029 48.4546 147.019 48.5091 147.02 48.5639C147.02 48.6737 147.063 48.779 147.141 48.8567C147.218 48.9343 147.324 48.9779 147.434 48.9779H153.962C154.071 48.9779 154.177 48.9343 154.254 48.8567C154.332 48.779 154.376 48.6737 154.376 48.5639C154.376 48.5091 154.366 48.4546 154.346 48.4036C154.325 48.3527 154.295 48.3064 154.256 48.2673C154.218 48.2282 154.172 48.1972 154.121 48.176C154.071 48.1548 154.016 48.1439 153.962 48.1439Z" fill="white"/>
<path d="M125.084 51.192H118.046V54.18H125.084V51.192Z" stroke="#263238" stroke-linecap="round" stroke-linejoin="round"/>
<path d="M126.17 51.6959H125.078V53.6819H126.17V51.6959Z" stroke="#263238" stroke-linecap="round" stroke-linejoin="round"/>
<path d="M174.956 53.1H173.708V54.186H174.956V53.1Z" stroke="#263238" stroke-linecap="round" stroke-linejoin="round"/>
<path d="M177.392 52.0079H176.144V54.1859H177.392V52.0079Z" stroke="#263238" stroke-linecap="round" stroke-linejoin="round"/>
<path d="M179.828 50.916H178.58V54.18H179.828V50.916Z" stroke="#263238" stroke-linecap="round" stroke-linejoin="round"/>
<path d="M182.258 49.824H181.01V54.18H182.258V49.824Z" stroke="#263238" stroke-linecap="round" stroke-linejoin="round"/>
<path opacity="0.5" d="M188.384 82.056H111.92V154.986H188.384V82.056Z" fill="white"/>
<path d="M133.04 70.4099V71.6759C133.04 73.2419 132.29 74.0759 130.754 74.0759H130.028V77.742H128.492V67.9919H130.754C132.29 67.9919 133.04 68.8439 133.04 70.4099ZM130.04 69.3899V72.6959H130.766C131.252 72.6959 131.516 72.4739 131.516 71.7779V70.3079C131.516 69.6119 131.252 69.3899 130.766 69.3899H130.04Z" fill="#263238"/>
<path d="M138.542 77.7599H136.994L136.724 75.9899H134.846L134.576 77.7599H133.166L134.732 67.9919H136.976L138.542 77.7599ZM135.038 74.6639H136.52L135.794 69.7259H135.764L135.038 74.6639Z" fill="#263238"/>
<path d="M140.005 74.5259L138.067 67.9919H139.699L140.857 72.4439H140.887L142.045 67.9919H143.509L141.571 74.5259V77.7599H140.035L140.005 74.5259Z" fill="#263238"/>
<path d="M147.332 74.9279H147.362L148.394 67.9919H150.53V77.7599H149.078V70.7579L148.046 77.7599H146.594L145.478 70.8539V77.7599H144.08V67.9919H146.216L147.332 74.9279Z" fill="#263238"/>
<path d="M153.182 72.1079H155.3V73.5059H153.194V76.3679H155.846V77.7599H151.646V67.9919H155.846V69.3899H153.194L153.182 72.1079Z" fill="#263238"/>
<path d="M158.18 70.6859H158.15V77.7599H156.77V67.9919H158.696L160.244 73.8419V67.9919H161.612V77.7599H160.04L158.18 70.6859Z" fill="#263238"/>
<path d="M162.296 67.9919H167.042V69.3899H165.434V77.7599H163.898V69.3899H162.296V67.9919Z" fill="#263238"/>
<path d="M169.778 67.8839C171.266 67.8839 172.034 68.7779 172.034 70.3379V70.6439H170.582V70.2419C170.582 69.5399 170.306 69.2759 169.814 69.2759C169.322 69.2759 169.052 69.5399 169.052 70.2419C169.052 70.9439 169.358 71.4839 170.36 72.3599C171.644 73.4939 172.052 74.2979 172.052 75.4139C172.052 76.9799 171.266 77.8739 169.76 77.8739C168.254 77.8739 167.474 76.9799 167.474 75.4139V74.8139H168.926V75.5159C168.926 76.2119 169.232 76.4639 169.718 76.4639C170.204 76.4639 170.516 76.2119 170.516 75.5159C170.516 74.8199 170.21 74.2739 169.202 73.3919C167.918 72.2639 167.516 71.4539 167.516 70.3379C167.516 68.7779 168.284 67.8839 169.778 67.8839Z" fill="#263238"/>
<path d="M182.258 90.894H118.046V100.488H182.258V90.894Z" fill="white" stroke="#263238" stroke-linecap="round" stroke-linejoin="round"/>
<path d="M182.258 108.888H118.046V118.482H182.258V108.888Z" fill="white" stroke="#263238" stroke-linecap="round" stroke-linejoin="round"/>
<path d="M182.258 125.25H118.046V134.844H182.258V125.25Z" fill="white" stroke="#263238" stroke-linecap="round" stroke-linejoin="round"/>
<path d="M148.448 138.342H118.046V149.574H148.448V138.342Z" fill="white" stroke="#263238" stroke-linecap="round" stroke-linejoin="round"/>
<path d="M182.264 138.342H151.862V149.574H182.264V138.342Z" fill="white" stroke="#263238" stroke-linecap="round" stroke-linejoin="round"/>
<path d="M122.048 89.22V89.478H120.038V86.64H121.988V86.898H120.344V87.912H121.808V88.164H120.344V89.22H122.048Z" fill="#263238"/>
<path d="M126.212 88.2419V89.4779H125.9V88.2779C125.9 87.8279 125.672 87.5939 125.3 87.5939C125.2 87.5897 125.1 87.6073 125.008 87.6455C124.915 87.6838 124.832 87.7418 124.764 87.8154C124.696 87.8891 124.645 87.9767 124.614 88.0721C124.584 88.1675 124.574 88.2684 124.586 88.3679V89.4839H124.298V88.2839C124.298 87.8339 124.07 87.5999 123.698 87.5999C123.598 87.5957 123.498 87.6133 123.406 87.6515C123.313 87.6898 123.23 87.7478 123.162 87.8214C123.094 87.8951 123.043 87.9827 123.012 88.0781C122.982 88.1735 122.972 88.2744 122.984 88.3739V89.4899H122.696V87.3599H122.972V87.7499C123.054 87.6173 123.171 87.5094 123.309 87.4375C123.447 87.3657 123.603 87.3327 123.758 87.3419C123.915 87.3287 124.073 87.3649 124.208 87.4456C124.344 87.5263 124.451 87.6474 124.514 87.7919C124.602 87.6476 124.726 87.5296 124.875 87.4504C125.024 87.3712 125.192 87.3337 125.36 87.3419C125.478 87.334 125.597 87.3522 125.707 87.3953C125.817 87.4384 125.917 87.5054 125.998 87.5914C126.08 87.6773 126.141 87.7802 126.178 87.8927C126.215 88.0051 126.227 88.1244 126.212 88.2419Z" fill="#263238"/>
<path d="M128.605 88.1579V89.4779H128.329V89.1479C128.248 89.2667 128.138 89.362 128.008 89.4242C127.878 89.4863 127.735 89.5132 127.591 89.5019C127.111 89.5019 126.817 89.2499 126.817 88.9019C126.817 88.5539 127.027 88.3019 127.639 88.3019H128.299V88.1699C128.299 87.8039 128.089 87.6059 127.699 87.6059C127.441 87.6019 127.189 87.6914 126.991 87.8579L126.859 87.6419C127.108 87.4496 127.415 87.348 127.729 87.3539C127.842 87.3354 127.958 87.3428 128.068 87.3756C128.178 87.4083 128.278 87.4656 128.363 87.543C128.447 87.6205 128.513 87.716 128.555 87.8226C128.597 87.9291 128.614 88.0438 128.605 88.1579ZM128.317 88.8419V88.4879H127.645C127.231 88.4879 127.099 88.6499 127.099 88.8719C127.099 89.0939 127.297 89.2739 127.639 89.2739C127.78 89.278 127.919 89.2388 128.037 89.1616C128.155 89.0843 128.247 88.9728 128.299 88.8419H128.317Z" fill="#263238"/>
<path d="M129.32 86.6759C129.322 86.6213 129.345 86.5694 129.384 86.5313C129.423 86.4932 129.476 86.4719 129.53 86.4719C129.584 86.4719 129.636 86.4934 129.675 86.5317C129.713 86.5699 129.734 86.6218 129.734 86.6759C129.734 86.73 129.713 86.7819 129.675 86.8202C129.636 86.8584 129.584 86.8799 129.53 86.8799C129.476 86.88 129.423 86.8587 129.384 86.8206C129.345 86.7825 129.322 86.7306 129.32 86.6759ZM129.386 87.3479H129.674V89.4779H129.386V87.3479Z" fill="#263238"/>
<path d="M130.478 86.4719H130.766V89.4719H130.478V86.4719Z" fill="#263238"/>
<path d="M124.033 96.5999V96.8579H122.023V94.0199H123.973V94.2779H122.299V95.2859H123.769V95.5439H122.299V96.5999H124.033Z" fill="#263238"/>
<path d="M128.198 95.6099V96.8459H127.91V95.6459C127.91 95.1959 127.682 94.9619 127.31 94.9619C127.21 94.9568 127.111 94.9736 127.018 95.0111C126.925 95.0487 126.842 95.1061 126.774 95.1793C126.706 95.2525 126.655 95.3397 126.624 95.4349C126.593 95.53 126.584 95.6307 126.596 95.7299V96.8519H126.308V95.6519C126.308 95.2019 126.08 94.9679 125.708 94.9679C125.608 94.9628 125.509 94.9796 125.416 95.0171C125.323 95.0547 125.24 95.1121 125.172 95.1853C125.104 95.2585 125.053 95.3458 125.022 95.4409C124.991 95.536 124.982 95.6367 124.994 95.7359V96.8579H124.7V94.7219H124.976V95.1119C125.059 94.9809 125.176 94.8745 125.314 94.8038C125.453 94.7331 125.607 94.7007 125.762 94.7099C125.919 94.6985 126.076 94.7355 126.211 94.8159C126.346 94.8964 126.453 95.0165 126.518 95.1599C126.605 95.0152 126.73 94.8969 126.879 94.8176C127.028 94.7383 127.196 94.7011 127.364 94.7099C127.481 94.7047 127.597 94.725 127.705 94.7693C127.813 94.8137 127.91 94.881 127.99 94.9666C128.069 95.0523 128.129 95.1542 128.165 95.2653C128.201 95.3764 128.212 95.494 128.198 95.6099Z" fill="#263238"/>
<path d="M130.586 95.526V96.846H130.31V96.516C130.23 96.634 130.12 96.7286 129.991 96.7898C129.863 96.851 129.72 96.8766 129.578 96.864C129.098 96.864 128.798 96.612 128.798 96.264C128.798 95.916 129.014 95.664 129.626 95.664H130.304V95.5379C130.304 95.1719 130.094 94.9739 129.704 94.9739C129.443 94.9706 129.19 95.06 128.99 95.226L128.864 95.01C129.111 94.8141 129.419 94.712 129.734 94.7219C129.845 94.7074 129.958 94.7178 130.065 94.7524C130.171 94.7869 130.269 94.8448 130.351 94.9217C130.432 94.9987 130.496 95.0929 130.536 95.1974C130.577 95.3019 130.594 95.4141 130.586 95.526ZM130.304 96.2039V95.8559H129.632C129.218 95.8559 129.086 96.0179 129.086 96.2399C129.086 96.4619 129.284 96.642 129.626 96.642C129.771 96.6503 129.914 96.6124 130.036 96.5336C130.158 96.4549 130.252 96.3394 130.304 96.2039Z" fill="#263238"/>
<path d="M131.3 94.0379C131.301 93.9833 131.324 93.9314 131.363 93.8933C131.403 93.8552 131.455 93.8339 131.51 93.834C131.537 93.8331 131.564 93.8378 131.59 93.8477C131.615 93.8576 131.638 93.8725 131.658 93.8915C131.678 93.9106 131.693 93.9333 131.704 93.9585C131.714 93.9836 131.72 94.0106 131.72 94.0379C131.72 94.0936 131.698 94.1471 131.658 94.1864C131.619 94.2258 131.566 94.248 131.51 94.248C131.454 94.248 131.401 94.2258 131.361 94.1864C131.322 94.1471 131.3 94.0936 131.3 94.0379ZM131.366 94.71H131.654V96.8459H131.366V94.71Z" fill="#263238"/>
<path d="M132.464 93.834H132.746V96.834H132.464V93.834Z" fill="#263238"/>
<path d="M135.5 95.6099V96.8459H135.212V95.6459C135.225 95.5573 135.218 95.4669 135.191 95.3814C135.164 95.2959 135.119 95.2175 135.058 95.1519C134.997 95.0863 134.922 95.0352 134.838 95.0023C134.755 94.9694 134.665 94.9556 134.576 94.9619C134.474 94.9534 134.371 94.9675 134.275 95.0034C134.179 95.0392 134.092 95.0958 134.02 95.1692C133.948 95.2426 133.894 95.3309 133.86 95.4278C133.827 95.5248 133.815 95.6279 133.826 95.7299V96.8519H133.538V94.7159H133.814V95.1119C133.901 94.9783 134.022 94.8701 134.164 94.7984C134.306 94.7267 134.465 94.6941 134.624 94.7039C134.744 94.6943 134.865 94.7114 134.978 94.7539C135.09 94.7965 135.192 94.8635 135.276 94.9501C135.36 95.0367 135.423 95.1408 135.462 95.2549C135.501 95.369 135.514 95.4902 135.5 95.6099Z" fill="#263238"/>
<path d="M137.9 95.5259V96.8459H137.624V96.5159C137.544 96.634 137.434 96.7286 137.306 96.7898C137.177 96.851 137.034 96.8766 136.892 96.8639C136.406 96.8639 136.112 96.6119 136.112 96.2639C136.112 95.9159 136.322 95.6639 136.934 95.6639H137.612V95.5379C137.612 95.1719 137.408 94.9739 137.012 94.9739C136.754 94.9699 136.502 95.0594 136.304 95.2259L136.172 95.0099C136.42 94.815 136.728 94.713 137.042 94.7219C137.154 94.7064 137.268 94.7161 137.375 94.7502C137.483 94.7843 137.581 94.842 137.663 94.9191C137.745 94.9961 137.809 95.0907 137.85 95.1957C137.891 95.3006 137.909 95.4135 137.9 95.5259ZM137.612 96.2039V95.8559H136.946C136.532 95.8559 136.394 96.0179 136.394 96.2399C136.394 96.4619 136.592 96.6419 136.934 96.6419C137.08 96.6516 137.225 96.6143 137.348 96.5354C137.471 96.4566 137.566 96.3404 137.618 96.2039H137.612Z" fill="#263238"/>
<path d="M142.208 95.6099V96.8459H141.92V95.6459C141.92 95.1959 141.692 94.9619 141.32 94.9619C141.22 94.9568 141.121 94.9736 141.028 95.0111C140.935 95.0487 140.852 95.1061 140.784 95.1793C140.716 95.2525 140.665 95.3398 140.634 95.4349C140.603 95.53 140.594 95.6307 140.606 95.7299V96.8519H140.3V95.6519C140.3 95.2019 140.072 94.9679 139.7 94.9679C139.6 94.9628 139.501 94.9796 139.408 95.0171C139.315 95.0547 139.232 95.1121 139.164 95.1853C139.096 95.2585 139.045 95.3458 139.014 95.4409C138.983 95.536 138.974 95.6367 138.986 95.7359V96.8579H138.698V94.7219H138.974V95.1119C139.057 94.9809 139.174 94.8745 139.312 94.8038C139.451 94.7331 139.605 94.7007 139.76 94.7099C139.917 94.6967 140.075 94.733 140.21 94.8137C140.346 94.8943 140.453 95.0154 140.516 95.1599C140.604 95.0157 140.728 94.8977 140.877 94.8185C141.026 94.7393 141.194 94.7018 141.362 94.7099C141.48 94.7029 141.598 94.7218 141.707 94.7654C141.817 94.8089 141.915 94.876 141.996 94.9618C142.077 95.0477 142.138 95.1503 142.174 95.2623C142.211 95.3743 142.223 95.493 142.208 95.6099Z" fill="#263238"/>
<path d="M144.854 95.8679H143.054C143.069 96.0771 143.167 96.2716 143.326 96.4089C143.484 96.5461 143.691 96.6148 143.9 96.5999C144.023 96.6033 144.145 96.5798 144.258 96.5311C144.371 96.4824 144.472 96.4097 144.554 96.3179L144.716 96.5039C144.563 96.6647 144.366 96.7767 144.149 96.8258C143.933 96.875 143.706 96.8592 143.499 96.7804C143.291 96.7017 143.112 96.5634 142.982 96.3829C142.853 96.2024 142.78 95.9878 142.772 95.7659C142.764 95.6252 142.786 95.4844 142.835 95.3524C142.885 95.2204 142.961 95.1 143.059 94.9987C143.157 94.8973 143.275 94.8173 143.405 94.7635C143.535 94.7097 143.675 94.6833 143.816 94.6859C143.956 94.6831 144.096 94.7095 144.225 94.7635C144.355 94.8174 144.472 94.8977 144.569 94.9992C144.666 95.1007 144.741 95.2213 144.789 95.3533C144.837 95.4853 144.857 95.6258 144.848 95.7659C144.848 95.7659 144.854 95.8379 144.854 95.8679ZM143.054 95.6519H144.566C144.566 95.4514 144.486 95.2591 144.345 95.1174C144.203 94.9756 144.01 94.8959 143.81 94.8959C143.609 94.8959 143.417 94.9756 143.275 95.1174C143.134 95.2591 143.054 95.4514 143.054 95.6519Z" fill="#263238"/>
<path d="M149.029 95.772C149.029 96.462 148.771 96.864 148.351 96.864C148.292 96.8673 148.233 96.8584 148.177 96.8378C148.122 96.8172 148.071 96.7853 148.028 96.7442C147.985 96.7031 147.951 96.6537 147.929 96.5989C147.906 96.5442 147.895 96.4853 147.895 96.426C147.812 96.5647 147.693 96.6786 147.55 96.7556C147.408 96.8326 147.247 96.8701 147.085 96.864C146.809 96.864 146.543 96.754 146.347 96.5582C146.151 96.3624 146.041 96.0969 146.041 95.82C146.041 95.5431 146.151 95.2776 146.347 95.0818C146.543 94.886 146.809 94.776 147.085 94.776C147.245 94.7692 147.404 94.805 147.545 94.8799C147.687 94.9548 147.805 95.066 147.889 95.202V94.8H148.153V96.336C148.153 96.564 148.267 96.648 148.405 96.648C148.651 96.648 148.813 96.336 148.813 95.79C148.82 95.5733 148.781 95.3576 148.699 95.1569C148.616 94.9562 148.493 94.7751 148.336 94.6252C148.18 94.4753 147.993 94.36 147.789 94.2867C147.585 94.2135 147.368 94.1839 147.151 94.2C146.937 94.2 146.725 94.2422 146.527 94.3242C146.329 94.4063 146.149 94.5265 145.997 94.678C145.846 94.8296 145.726 95.0095 145.644 95.2075C145.562 95.4055 145.519 95.6177 145.519 95.832C145.519 96.0463 145.562 96.2585 145.644 96.4565C145.726 96.6545 145.846 96.8345 145.997 96.986C146.149 97.1375 146.329 97.2578 146.527 97.3398C146.725 97.4218 146.937 97.464 147.151 97.464C147.422 97.4633 147.688 97.4018 147.931 97.284L147.997 97.482C147.733 97.6065 147.444 97.67 147.151 97.668C146.664 97.668 146.197 97.4746 145.853 97.1303C145.509 96.7859 145.315 96.3189 145.315 95.832C145.315 95.3451 145.509 94.8781 145.853 94.5338C146.197 94.1894 146.664 93.996 147.151 93.996C147.394 93.9785 147.637 94.0116 147.866 94.0933C148.095 94.175 148.305 94.3035 148.481 94.4705C148.658 94.6376 148.798 94.8395 148.892 95.0636C148.987 95.2877 149.033 95.5289 149.029 95.772ZM147.889 95.814C147.899 95.707 147.886 95.5993 147.852 95.4976C147.817 95.3959 147.762 95.3024 147.689 95.2232C147.617 95.144 147.529 95.0808 147.43 95.0375C147.332 94.9943 147.226 94.9719 147.118 94.9719C147.011 94.9719 146.905 94.9943 146.807 95.0375C146.708 95.0808 146.62 95.144 146.548 95.2232C146.475 95.3024 146.42 95.3959 146.385 95.4976C146.351 95.5993 146.338 95.707 146.347 95.814C146.338 95.921 146.351 96.0287 146.385 96.1304C146.42 96.2321 146.475 96.3256 146.548 96.4048C146.62 96.484 146.708 96.5472 146.807 96.5905C146.905 96.6337 147.011 96.6561 147.118 96.6561C147.226 96.6561 147.332 96.6337 147.43 96.5905C147.529 96.5472 147.617 96.484 147.689 96.4048C147.762 96.3256 147.817 96.2321 147.852 96.1304C147.886 96.0287 147.899 95.921 147.889 95.814Z" fill="#263238"/>
<path d="M151.49 95.868H149.69C149.696 95.972 149.723 96.0739 149.768 96.1676C149.814 96.2614 149.877 96.3453 149.955 96.4144C150.033 96.4835 150.124 96.5365 150.223 96.5704C150.321 96.6043 150.426 96.6185 150.53 96.612C150.653 96.6153 150.775 96.5918 150.888 96.5431C151.001 96.4944 151.102 96.4217 151.184 96.33L151.346 96.516C151.193 96.6767 150.996 96.7887 150.779 96.8379C150.563 96.8871 150.336 96.8713 150.129 96.7925C149.921 96.7137 149.742 96.5754 149.612 96.3949C149.483 96.2144 149.41 95.9998 149.402 95.778C149.394 95.6372 149.416 95.4964 149.465 95.3644C149.515 95.2324 149.591 95.112 149.689 95.0107C149.787 94.9093 149.904 94.8293 150.035 94.7755C150.165 94.7217 150.305 94.6953 150.446 94.698C150.586 94.6952 150.726 94.7216 150.855 94.7755C150.985 94.8294 151.102 94.9097 151.199 95.0112C151.296 95.1128 151.371 95.2333 151.419 95.3653C151.467 95.4973 151.487 95.6378 151.478 95.778C151.478 95.778 151.49 95.838 151.49 95.868ZM149.69 95.652H151.202C151.202 95.4514 151.122 95.2592 150.98 95.1174C150.839 94.9756 150.646 94.896 150.446 94.896C150.245 94.896 150.053 94.9756 149.911 95.1174C149.769 95.2592 149.69 95.4514 149.69 95.652Z" fill="#263238"/>
<path d="M155.606 95.6099V96.8459H155.3V95.6459C155.3 95.1959 155.072 94.9619 154.7 94.9619C154.6 94.9568 154.5 94.9736 154.407 95.0111C154.315 95.0487 154.232 95.1061 154.163 95.1793C154.095 95.2525 154.044 95.3398 154.013 95.4349C153.983 95.53 153.973 95.6307 153.986 95.7299V96.8519H153.698V95.6519C153.698 95.2019 153.47 94.9679 153.098 94.9679C152.998 94.9628 152.898 94.9796 152.805 95.0171C152.713 95.0547 152.63 95.1121 152.561 95.1853C152.493 95.2585 152.442 95.3458 152.411 95.4409C152.381 95.536 152.371 95.6367 152.384 95.7359V96.8579H152.096V94.7219H152.372V95.1119C152.454 94.9814 152.57 94.8752 152.707 94.8045C152.844 94.7339 152.998 94.7012 153.152 94.7099C153.309 94.6981 153.467 94.7348 153.603 94.8153C153.74 94.8958 153.848 95.016 153.914 95.1599C153.999 95.0152 154.123 94.8968 154.271 94.8174C154.419 94.7381 154.586 94.7009 154.754 94.7099C154.872 94.702 154.99 94.7202 155.101 94.7634C155.211 94.8065 155.31 94.8734 155.392 94.9594C155.473 95.0454 155.534 95.1483 155.571 95.2607C155.608 95.3732 155.62 95.4924 155.606 95.6099Z" fill="#263238"/>
<path d="M157.993 95.5259V96.8459H157.699V96.5159C157.619 96.6336 157.509 96.7278 157.381 96.7889C157.252 96.8501 157.109 96.8759 156.967 96.8639C156.481 96.8639 156.188 96.6119 156.188 96.2639C156.188 95.9159 156.397 95.6639 157.009 95.6639H157.699V95.5379C157.699 95.1719 157.495 94.9739 157.099 94.9739C156.841 94.9699 156.589 95.0594 156.391 95.2259L156.259 95.0099C156.507 94.815 156.815 94.713 157.129 94.7219C157.242 94.7054 157.356 94.7143 157.464 94.748C157.572 94.7817 157.672 94.8392 157.755 94.9164C157.838 94.9936 157.902 95.0885 157.943 95.194C157.985 95.2995 158.002 95.4129 157.993 95.5259ZM157.705 96.2039V95.8559H157.039C156.625 95.8559 156.487 96.0179 156.487 96.2399C156.487 96.4619 156.685 96.6419 157.027 96.6419C157.171 96.649 157.314 96.6104 157.434 96.5318C157.555 96.4531 157.648 96.3384 157.699 96.2039H157.705Z" fill="#263238"/>
<path d="M158.714 94.0379C158.714 93.9964 158.726 93.9558 158.749 93.9213C158.772 93.8867 158.805 93.8598 158.844 93.8439C158.882 93.828 158.924 93.8239 158.965 93.832C159.006 93.8401 159.043 93.8601 159.072 93.8895C159.102 93.9188 159.122 93.9562 159.13 93.997C159.138 94.0377 159.134 94.0799 159.118 94.1183C159.102 94.1567 159.075 94.1895 159.041 94.2126C159.006 94.2356 158.965 94.2479 158.924 94.2479C158.868 94.2479 158.815 94.2258 158.775 94.1864C158.736 94.1471 158.714 94.0936 158.714 94.0379ZM158.774 94.7099H159.062V96.8459H158.774V94.7099Z" fill="#263238"/>
<path d="M159.866 93.834H160.154V96.834H159.866V93.834Z" fill="#263238"/>
<path d="M160.772 96.642C160.771 96.6134 160.776 96.5849 160.786 96.5584C160.797 96.5318 160.813 96.5076 160.833 96.4874C160.853 96.4672 160.877 96.4513 160.904 96.4407C160.931 96.4302 160.959 96.4252 160.988 96.426C161.045 96.426 161.1 96.4487 161.14 96.4893C161.181 96.5298 161.204 96.5847 161.204 96.642C161.204 96.6998 161.181 96.7554 161.141 96.7969C161.1 96.8383 161.045 96.8624 160.988 96.864C160.959 96.864 160.93 96.8582 160.903 96.847C160.877 96.8357 160.853 96.8193 160.833 96.7986C160.813 96.7779 160.797 96.7534 160.786 96.7265C160.776 96.6996 160.771 96.6709 160.772 96.642Z" fill="#263238"/>
<path d="M161.54 95.7779C161.535 95.6334 161.561 95.4895 161.615 95.3554C161.669 95.2212 161.75 95.0996 161.853 94.9982C161.956 94.8968 162.079 94.8178 162.214 94.7662C162.349 94.7145 162.493 94.6913 162.638 94.6979C162.802 94.6871 162.967 94.7203 163.115 94.7941C163.262 94.8679 163.388 94.9797 163.478 95.1179L163.262 95.2619C163.194 95.1655 163.104 95.0868 163 95.0325C162.895 94.9782 162.779 94.9498 162.662 94.9499C162.454 94.9676 162.26 95.0628 162.118 95.2167C161.977 95.3706 161.898 95.572 161.898 95.7809C161.898 95.9899 161.977 96.1912 162.118 96.3451C162.26 96.499 162.454 96.5942 162.662 96.6119C162.78 96.613 162.896 96.5852 163.001 96.5308C163.105 96.4764 163.195 96.3971 163.262 96.2999L163.478 96.4439C163.387 96.5813 163.261 96.6924 163.114 96.7661C162.966 96.8398 162.802 96.8735 162.638 96.8639C162.493 96.8706 162.348 96.8472 162.213 96.7952C162.077 96.7432 161.954 96.6636 161.851 96.5616C161.748 96.4595 161.667 96.3372 161.613 96.2023C161.56 96.0675 161.535 95.9229 161.54 95.7779Z" fill="#263238"/>
<path d="M163.79 95.778C163.79 95.5632 163.853 95.3533 163.973 95.1747C164.092 94.9961 164.262 94.8569 164.46 94.7747C164.659 94.6925 164.877 94.671 165.088 94.7129C165.298 94.7548 165.492 94.8582 165.644 95.0101C165.795 95.162 165.899 95.3555 165.941 95.5661C165.983 95.7768 165.961 95.9952 165.879 96.1936C165.797 96.3921 165.658 96.5617 165.479 96.681C165.3 96.8003 165.09 96.864 164.876 96.864C164.732 96.869 164.588 96.8444 164.454 96.7916C164.32 96.7388 164.198 96.659 164.097 96.5571C163.995 96.4553 163.915 96.3335 163.862 96.1995C163.809 96.0655 163.785 95.922 163.79 95.778ZM165.668 95.778C165.663 95.6201 165.611 95.4671 165.519 95.3385C165.427 95.2099 165.299 95.1115 165.151 95.0558C165.004 95.0001 164.842 94.9895 164.689 95.0255C164.535 95.0614 164.395 95.1423 164.287 95.2578C164.179 95.3733 164.108 95.5182 164.082 95.6742C164.057 95.8302 164.079 95.9902 164.144 96.134C164.21 96.2777 164.317 96.3988 164.451 96.4818C164.586 96.5647 164.742 96.6059 164.9 96.6C165.005 96.5986 165.108 96.5759 165.204 96.5334C165.301 96.4909 165.387 96.4294 165.459 96.3526C165.53 96.2758 165.586 96.1854 165.622 96.0866C165.658 95.9879 165.673 95.8829 165.668 95.778Z" fill="#263238"/>
<path d="M170.066 95.6099V96.8459H169.778V95.6459C169.778 95.1959 169.55 94.9619 169.178 94.9619C169.078 94.9568 168.979 94.9736 168.886 95.0111C168.793 95.0487 168.71 95.1061 168.642 95.1793C168.574 95.2525 168.523 95.3398 168.492 95.4349C168.461 95.53 168.452 95.6307 168.464 95.7299V96.8519H168.176V95.6519C168.176 95.2019 167.948 94.9679 167.576 94.9679C167.476 94.9628 167.377 94.9796 167.284 95.0171C167.191 95.0547 167.108 95.1121 167.04 95.1853C166.972 95.2585 166.921 95.3458 166.89 95.4409C166.859 95.536 166.85 95.6367 166.862 95.7359V96.8579H166.574V94.7219H166.85V95.1119C166.932 94.9814 167.048 94.8752 167.185 94.8045C167.323 94.7339 167.476 94.7012 167.63 94.7099C167.788 94.6981 167.946 94.7348 168.082 94.8153C168.218 94.8958 168.326 95.016 168.392 95.1599C168.478 95.0157 168.602 94.8976 168.75 94.8183C168.898 94.739 169.065 94.7016 169.232 94.7099C169.349 94.7047 169.465 94.725 169.573 94.7693C169.681 94.8137 169.778 94.881 169.858 94.9667C169.937 95.0523 169.997 95.1542 170.033 95.2653C170.069 95.3764 170.08 95.494 170.066 95.6099Z" fill="#263238"/>
<path d="M122.534 113.736L123.038 114.024L122.948 114.192L122.438 113.898V114.498H122.252V113.898L121.742 114.192L121.646 114.024L122.156 113.736L121.646 113.454L121.742 113.28L122.252 113.58V112.98H122.438V113.58L122.948 113.28L123.038 113.454L122.534 113.736Z" fill="#263238"/>
<path d="M124.184 113.736L124.688 114.024L124.592 114.192L124.088 113.898V114.498H123.896V113.898L123.392 114.192L123.29 114.024L123.8 113.736L123.29 113.454L123.392 113.28L123.896 113.58V112.98H124.1V113.58L124.604 113.28L124.7 113.454L124.184 113.736Z" fill="#263238"/>
<path d="M125.828 113.736L126.332 114.024L126.236 114.192L125.732 113.898V114.498H125.546V113.898L125.042 114.192L124.946 114.024L125.45 113.736L124.946 113.454L125.042 113.28L125.546 113.58V112.98H125.732V113.58L126.236 113.28L126.332 113.454L125.828 113.736Z" fill="#263238"/>
<path d="M127.472 113.736L127.976 114.024L127.886 114.192L127.376 113.898V114.498H127.19V113.898L126.68 114.192L126.584 114.024L127.094 113.736L126.584 113.454L126.68 113.28L127.19 113.58V112.98H127.376V113.58L127.886 113.28L127.976 113.454L127.472 113.736Z" fill="#263238"/>
<path d="M129.122 113.736L129.626 114.024L129.53 114.192L129.026 113.898V114.498H128.834V113.898L128.33 114.192L128.228 114.024L128.738 113.736L128.228 113.454L128.33 113.28L128.834 113.58V112.98H129.026V113.58L129.53 113.28L129.626 113.454L129.122 113.736Z" fill="#263238"/>
<path d="M130.766 113.736L131.27 114.024L131.174 114.192L130.67 113.898V114.498H130.484V113.898L129.98 114.192L129.884 114.024L130.388 113.736L129.884 113.454L129.98 113.28L130.484 113.58V112.98H130.7V113.58L131.204 113.28L131.3 113.454L130.766 113.736Z" fill="#263238"/>
<path d="M132.409 113.736L132.913 114.024L132.823 114.192L132.313 113.898V114.498H132.127V113.898L131.617 114.192L131.521 114.024L132.031 113.736L131.521 113.454L131.617 113.28L132.127 113.58V112.98H132.313V113.58L132.823 113.28L132.913 113.454L132.409 113.736Z" fill="#263238"/>
<path d="M134.06 113.736L134.564 114.024L134.468 114.192L133.958 113.898V114.498H133.772V113.898L133.268 114.192L133.166 114.024L133.676 113.736L133.166 113.454L133.268 113.28L133.772 113.58V112.98H133.958V113.58L134.468 113.28L134.564 113.454L134.06 113.736Z" fill="#263238"/>
<path d="M135.704 113.736L136.208 114.024L136.112 114.192L135.608 113.898V114.498H135.422V113.898L134.918 114.192L134.822 114.024L135.326 113.736L134.822 113.454L134.918 113.28L135.422 113.58V112.98H135.608V113.58L136.112 113.28L136.208 113.454L135.704 113.736Z" fill="#263238"/>
<path d="M137.348 113.736L137.852 114.024L137.762 114.192L137.252 113.898V114.498H137.066V113.898L136.556 114.192L136.46 114.024L136.964 113.736L136.46 113.454L136.556 113.28L137.066 113.58V112.98H137.252V113.58L137.762 113.28L137.852 113.454L137.348 113.736Z" fill="#263238"/>
<path d="M138.998 113.736L139.496 114.024L139.406 114.192L138.896 113.898V114.498H138.71V113.898L138.206 114.192L138.104 114.024L138.614 113.736L138.104 113.454L138.206 113.28L138.71 113.58V112.98H138.896V113.58L139.406 113.28L139.496 113.454L138.998 113.736Z" fill="#263238"/>
<path d="M122.264 105.6C122.264 106.2 121.826 106.572 121.106 106.572H120.344V107.466H120.038V104.64H121.1C121.826 104.64 122.264 105 122.264 105.6ZM121.964 105.6C121.964 105.144 121.664 104.886 121.094 104.886H120.344V106.308H121.1C121.664 106.32 121.964 106.062 121.964 105.6Z" fill="#263238"/>
<path d="M124.442 106.158V107.478H124.166V107.148C124.085 107.266 123.974 107.361 123.844 107.422C123.715 107.483 123.571 107.508 123.428 107.496C122.948 107.496 122.654 107.25 122.654 106.896C122.654 106.542 122.864 106.296 123.476 106.296H124.154V106.17C124.154 105.804 123.944 105.606 123.554 105.606C123.296 105.602 123.044 105.691 122.846 105.858L122.714 105.642C122.962 105.447 123.27 105.345 123.584 105.354C123.696 105.338 123.81 105.348 123.917 105.382C124.025 105.416 124.123 105.474 124.205 105.551C124.288 105.628 124.351 105.723 124.393 105.828C124.434 105.933 124.451 106.046 124.442 106.158ZM124.154 106.836V106.488H123.5C123.086 106.488 122.954 106.65 122.954 106.872C122.954 107.094 123.152 107.274 123.494 107.274C123.636 107.278 123.776 107.239 123.894 107.16C124.012 107.082 124.103 106.968 124.154 106.836Z" fill="#263238"/>
<path d="M124.928 107.238L125.054 107.01C125.277 107.167 125.543 107.251 125.816 107.25C126.218 107.25 126.386 107.112 126.386 106.896C126.386 106.344 125.006 106.782 125.006 105.936C125.006 105.588 125.306 105.336 125.846 105.336C126.111 105.333 126.372 105.401 126.602 105.534L126.476 105.762C126.288 105.64 126.069 105.578 125.846 105.582C125.462 105.582 125.294 105.732 125.294 105.936C125.294 106.536 126.674 106.08 126.674 106.896C126.674 107.268 126.35 107.496 125.792 107.496C125.483 107.506 125.18 107.415 124.928 107.238Z" fill="#263238"/>
<path d="M126.908 107.238L127.04 107.01C127.261 107.167 127.525 107.251 127.796 107.25C128.204 107.25 128.396 107.112 128.396 106.896C128.396 106.344 127.016 106.782 127.016 105.936C127.016 105.588 127.316 105.336 127.862 105.336C128.126 105.332 128.385 105.4 128.612 105.534L128.486 105.762C128.308 105.646 128.099 105.583 127.886 105.582C127.496 105.582 127.328 105.732 127.328 105.936C127.328 106.536 128.708 106.08 128.708 106.896C128.708 107.268 128.384 107.496 127.832 107.496C127.504 107.519 127.177 107.428 126.908 107.238Z" fill="#263238"/>
<path d="M132.278 105.348L131.468 107.478H131.198L130.526 105.732L129.854 107.478H129.578L128.78 105.348H129.056L129.722 107.148L130.406 105.348H130.658L131.336 107.148L132.014 105.348H132.278Z" fill="#263238"/>
<path d="M132.434 106.41C132.434 106.195 132.498 105.985 132.617 105.807C132.737 105.628 132.906 105.489 133.105 105.407C133.303 105.324 133.521 105.303 133.732 105.345C133.943 105.387 134.136 105.49 134.288 105.642C134.44 105.794 134.543 105.987 134.585 106.198C134.627 106.409 134.606 106.627 134.524 106.826C134.441 107.024 134.302 107.194 134.124 107.313C133.945 107.432 133.735 107.496 133.52 107.496C133.376 107.501 133.233 107.476 133.099 107.424C132.965 107.371 132.843 107.291 132.741 107.189C132.639 107.087 132.559 106.965 132.507 106.831C132.454 106.697 132.429 106.554 132.434 106.41ZM134.312 106.41C134.312 106.2 134.229 105.998 134.08 105.85C133.932 105.701 133.73 105.618 133.52 105.618C133.31 105.618 133.109 105.701 132.96 105.85C132.812 105.998 132.728 106.2 132.728 106.41C132.728 106.62 132.812 106.821 132.96 106.97C133.109 107.119 133.31 107.202 133.52 107.202C133.73 107.202 133.932 107.119 134.08 106.97C134.229 106.821 134.312 106.62 134.312 106.41Z" fill="#263238"/>
<path d="M136.268 105.33V105.6H136.196C136.095 105.595 135.994 105.613 135.9 105.652C135.807 105.691 135.723 105.75 135.655 105.825C135.587 105.9 135.536 105.99 135.506 106.086C135.476 106.183 135.468 106.286 135.482 106.386V107.472H135.194V105.342H135.5V105.756C135.573 105.618 135.684 105.504 135.82 105.428C135.957 105.352 136.113 105.318 136.268 105.33Z" fill="#263238"/>
<path d="M138.71 104.472V107.472H138.434V107.052C138.348 107.192 138.227 107.306 138.082 107.383C137.938 107.46 137.775 107.497 137.612 107.49C137.338 107.47 137.083 107.347 136.897 107.146C136.71 106.945 136.606 106.681 136.606 106.407C136.606 106.133 136.71 105.869 136.897 105.668C137.083 105.467 137.338 105.344 137.612 105.324C137.772 105.318 137.93 105.353 138.072 105.427C138.214 105.501 138.335 105.61 138.422 105.744V104.466L138.71 104.472ZM138.428 106.41C138.42 106.255 138.366 106.107 138.274 105.982C138.183 105.857 138.056 105.762 137.911 105.709C137.766 105.655 137.608 105.645 137.457 105.681C137.306 105.716 137.169 105.794 137.063 105.907C136.956 106.019 136.885 106.16 136.857 106.312C136.83 106.465 136.848 106.622 136.909 106.764C136.97 106.906 137.071 107.028 137.2 107.113C137.33 107.198 137.481 107.244 137.636 107.244C137.744 107.246 137.851 107.225 137.951 107.183C138.051 107.142 138.141 107.08 138.215 107.001C138.29 106.923 138.347 106.83 138.384 106.728C138.42 106.626 138.435 106.518 138.428 106.41Z" fill="#263238"/>
<path d="M142.976 129V131.844H142.7V129.264H142.028V129H142.976Z" fill="#263238"/>
<path d="M145.592 131.568V131.832H143.6V131.622L144.8 130.464C145.118 130.152 145.184 129.96 145.184 129.768C145.184 129.438 144.95 129.234 144.518 129.234C144.373 129.225 144.229 129.248 144.094 129.304C143.96 129.359 143.841 129.444 143.744 129.552L143.534 129.372C143.662 129.234 143.819 129.126 143.993 129.056C144.167 128.985 144.355 128.954 144.542 128.964C145.142 128.964 145.484 129.258 145.484 129.732C145.475 129.905 145.428 130.074 145.347 130.227C145.267 130.381 145.154 130.514 145.016 130.62L144.05 131.568H145.592Z" fill="#263238"/>
<path d="M147.836 131.016C147.836 131.49 147.488 131.856 146.804 131.856C146.43 131.868 146.065 131.737 145.784 131.49L145.922 131.256C146.162 131.476 146.478 131.595 146.804 131.586C147.278 131.586 147.536 131.37 147.536 131.016C147.536 130.662 147.296 130.452 146.768 130.452H146.564V130.236L147.35 129.252H145.898V129H147.698V129.21L146.9 130.2C147.53 130.242 147.836 130.56 147.836 131.016Z" fill="#263238"/>
<path d="M150.656 131.082H150.086V131.832H149.798V131.082H148.196V130.872L149.702 128.988H150.026L148.574 130.8H149.804V130.14H150.086V130.8H150.656V131.082Z" fill="#263238"/>
<path d="M153.914 130.992C153.914 131.478 153.578 131.856 152.882 131.856C152.508 131.867 152.144 131.736 151.862 131.49L152.006 131.256C152.122 131.366 152.259 131.452 152.408 131.509C152.557 131.565 152.717 131.592 152.876 131.586C153.362 131.586 153.614 131.352 153.614 130.986C153.614 130.62 153.386 130.386 152.666 130.386H152.066L152.216 128.958H153.77V129.222H152.468L152.372 130.122H152.738C153.59 130.152 153.914 130.494 153.914 130.992Z" fill="#263238"/>
<path d="M156.416 130.98C156.415 131.103 156.389 131.224 156.338 131.337C156.287 131.449 156.214 131.549 156.123 131.632C156.031 131.714 155.924 131.776 155.807 131.815C155.69 131.854 155.567 131.868 155.444 131.856C154.688 131.856 154.28 131.328 154.28 130.434C154.28 129.54 154.808 128.964 155.576 128.964C155.812 128.955 156.046 129.009 156.254 129.12L156.134 129.354C155.967 129.258 155.775 129.212 155.582 129.222C154.982 129.222 154.574 129.612 154.574 130.386C154.574 130.452 154.574 130.53 154.574 130.614C154.657 130.458 154.783 130.329 154.938 130.243C155.092 130.156 155.268 130.117 155.444 130.128C155.565 130.113 155.689 130.123 155.805 130.159C155.922 130.195 156.03 130.255 156.122 130.335C156.214 130.416 156.287 130.515 156.338 130.626C156.389 130.737 156.416 130.858 156.416 130.98ZM156.128 130.98C156.128 130.602 155.852 130.38 155.414 130.38C155.326 130.369 155.237 130.376 155.152 130.401C155.067 130.426 154.988 130.467 154.92 130.523C154.851 130.579 154.795 130.649 154.754 130.727C154.713 130.806 154.689 130.892 154.682 130.98C154.682 131.292 154.94 131.58 155.432 131.58C155.518 131.594 155.605 131.589 155.689 131.566C155.772 131.543 155.849 131.502 155.916 131.446C155.982 131.39 156.035 131.321 156.072 131.242C156.108 131.164 156.128 131.079 156.128 130.992V130.98Z" fill="#263238"/>
<path d="M158.72 129V129.21L157.52 131.844H157.202L158.372 129.264H156.914V129.792H156.626V129H158.72Z" fill="#263238"/>
<path d="M161.21 131.04C161.21 131.544 160.784 131.856 160.106 131.856C159.428 131.856 159.014 131.544 159.014 131.04C159.012 130.878 159.065 130.721 159.164 130.594C159.263 130.466 159.403 130.376 159.56 130.338C159.429 130.303 159.314 130.224 159.233 130.115C159.152 130.006 159.111 129.873 159.116 129.738C159.116 129.276 159.506 128.988 160.106 128.988C160.706 128.988 161.108 129.276 161.108 129.738C161.106 129.873 161.06 130.005 160.978 130.113C160.896 130.221 160.782 130.3 160.652 130.338C160.81 130.375 160.952 130.464 161.053 130.591C161.155 130.719 161.21 130.877 161.21 131.04ZM160.91 131.04C160.91 130.692 160.61 130.47 160.106 130.47C159.602 130.47 159.308 130.692 159.308 131.04C159.308 131.388 159.602 131.64 160.106 131.64C160.61 131.64 160.91 131.4 160.91 131.034V131.04ZM160.1 130.236C160.544 130.236 160.808 130.038 160.808 129.726C160.808 129.414 160.526 129.216 160.1 129.216C159.674 129.216 159.398 129.408 159.398 129.726C159.398 130.044 159.662 130.236 160.1 130.236Z" fill="#263238"/>
<path d="M164.726 130.386C164.726 131.352 164.198 131.856 163.424 131.856C163.19 131.864 162.958 131.81 162.752 131.7L162.872 131.466C163.039 131.562 163.231 131.608 163.424 131.598C164.024 131.598 164.426 131.202 164.426 130.434C164.431 130.358 164.431 130.282 164.426 130.206C164.345 130.363 164.22 130.492 164.066 130.579C163.913 130.665 163.737 130.704 163.562 130.692C163.441 130.705 163.32 130.693 163.204 130.657C163.089 130.62 162.983 130.56 162.892 130.479C162.802 130.399 162.729 130.301 162.679 130.191C162.629 130.08 162.602 129.961 162.602 129.84C162.603 129.717 162.629 129.595 162.68 129.483C162.73 129.371 162.804 129.271 162.895 129.188C162.986 129.106 163.094 129.043 163.211 129.005C163.328 128.966 163.451 128.952 163.574 128.964C164.3 128.964 164.726 129.492 164.726 130.386ZM164.324 129.822C164.324 129.51 164.066 129.222 163.574 129.222C163.487 129.208 163.399 129.213 163.314 129.237C163.23 129.261 163.152 129.303 163.086 129.36C163.019 129.417 162.966 129.488 162.93 129.568C162.894 129.648 162.876 129.734 162.878 129.822C162.878 130.2 163.154 130.422 163.592 130.422C163.765 130.435 163.936 130.38 164.069 130.267C164.201 130.155 164.284 129.995 164.3 129.822H164.324Z" fill="#263238"/>
<path d="M165.926 129V131.844H165.632V129.264H164.96V129H165.926Z" fill="#263238"/>
<path d="M166.598 130.41C166.598 129.504 167.078 128.964 167.732 128.964C168.386 128.964 168.866 129.504 168.866 130.41C168.866 131.316 168.392 131.856 167.732 131.856C167.072 131.856 166.598 131.316 166.598 130.41ZM168.566 130.41C168.566 129.654 168.23 129.21 167.732 129.21C167.234 129.21 166.898 129.63 166.898 130.41C166.898 131.19 167.24 131.61 167.732 131.61C168.224 131.61 168.566 131.166 168.566 130.41Z" fill="#263238"/>
<path d="M170.066 129V131.844H169.772V129.264H169.1V129H170.066Z" fill="#263238"/>
<path d="M172.592 129V131.844H172.298V129.264H171.626V129H172.592Z" fill="#263238"/>
<path d="M174.05 129V131.844H173.762V129.264H173.09V129H174.05Z" fill="#263238"/>
<path d="M176.665 131.568V131.832H174.673V131.622L175.873 130.464C176.191 130.152 176.257 129.96 176.257 129.768C176.257 129.438 176.023 129.234 175.591 129.234C175.447 129.225 175.302 129.248 175.168 129.304C175.034 129.359 174.914 129.444 174.817 129.552L174.607 129.372C174.736 129.235 174.893 129.128 175.067 129.057C175.241 128.987 175.428 128.955 175.615 128.964C176.215 128.964 176.557 129.258 176.557 129.732C176.548 129.905 176.502 130.074 176.421 130.227C176.34 130.38 176.227 130.514 176.089 130.62L175.099 131.568H176.665Z" fill="#263238"/>
<path d="M177.818 129V131.844H177.5V129.264H176.834V129H177.818Z" fill="#263238"/>
<path d="M129.974 128.34V127.908C129.974 127.707 129.894 127.515 129.752 127.373C129.611 127.232 129.418 127.152 129.218 127.152H121.556C121.355 127.152 121.163 127.232 121.021 127.373C120.879 127.515 120.8 127.707 120.8 127.908V128.34H129.974Z" fill="#263238"/>
<path d="M120.8 128.934V132.114C120.8 132.314 120.879 132.507 121.021 132.649C121.163 132.79 121.355 132.87 121.556 132.87H129.218C129.418 132.87 129.611 132.79 129.752 132.649C129.894 132.507 129.974 132.314 129.974 132.114V128.934H120.8Z" fill="#263238"/>
<path d="M120.914 145.68C120.914 144.774 121.388 144.24 122.048 144.24C122.708 144.24 123.182 144.774 123.182 145.68C123.182 146.586 122.702 147.126 122.048 147.126C121.394 147.126 120.914 146.586 120.914 145.68ZM122.882 145.68C122.882 144.924 122.54 144.48 122.048 144.48C121.556 144.48 121.214 144.9 121.214 145.68C121.214 146.46 121.55 146.88 122.048 146.88C122.546 146.88 122.9 146.442 122.9 145.68H122.882Z" fill="#263238"/>
<path d="M125.78 146.31C125.78 146.814 125.354 147.126 124.676 147.126C123.998 147.126 123.584 146.814 123.584 146.31C123.581 146.149 123.634 145.992 123.734 145.865C123.833 145.738 123.973 145.65 124.13 145.614C124.003 145.573 123.892 145.493 123.812 145.385C123.732 145.277 123.688 145.148 123.686 145.014C123.686 144.552 124.076 144.264 124.676 144.264C125.276 144.264 125.678 144.552 125.678 145.014C125.675 145.148 125.629 145.278 125.549 145.386C125.468 145.493 125.356 145.573 125.228 145.614C125.386 145.65 125.526 145.738 125.627 145.865C125.727 145.991 125.781 146.148 125.78 146.31ZM125.48 146.31C125.48 145.962 125.18 145.746 124.676 145.746C124.172 145.746 123.878 145.962 123.878 146.31C123.878 146.658 124.178 146.91 124.676 146.91C125.174 146.91 125.48 146.658 125.48 146.304V146.31ZM124.7 145.506C125.144 145.506 125.408 145.308 125.408 145.002C125.408 144.696 125.126 144.486 124.7 144.486C124.274 144.486 123.998 144.678 123.998 144.996C123.998 145.314 124.238 145.506 124.7 145.506Z" fill="#263238"/>
<path d="M127.213 143.688H127.477L126.133 147.504H125.899L127.213 143.688Z" fill="#263238"/>
<path d="M129.499 146.838V147.102H127.507V146.892L128.707 145.74C129.025 145.422 129.085 145.23 129.085 145.038C129.085 144.708 128.857 144.504 128.425 144.504C128.28 144.495 128.134 144.518 127.999 144.573C127.864 144.629 127.743 144.713 127.645 144.822L127.441 144.642C127.569 144.505 127.726 144.398 127.9 144.328C128.075 144.259 128.262 144.228 128.449 144.24C129.049 144.24 129.385 144.528 129.385 145.002C129.379 145.175 129.335 145.345 129.255 145.498C129.175 145.652 129.062 145.786 128.923 145.89L127.957 146.838H129.499Z" fill="#263238"/>
<path d="M131.774 146.262C131.774 146.748 131.438 147.126 130.742 147.126C130.368 147.137 130.003 147.006 129.722 146.76L129.866 146.526C129.981 146.636 130.118 146.722 130.267 146.779C130.417 146.835 130.576 146.862 130.736 146.856C131.222 146.856 131.474 146.622 131.474 146.256C131.474 145.89 131.252 145.656 130.526 145.656H129.926L130.07 144.234H131.624V144.492H130.322L130.226 145.398H130.592C131.45 145.428 131.774 145.764 131.774 146.262Z" fill="#263238"/>
<path d="M122.24 142.434V142.596H120.992V140.832H122.192V141H121.172V141.6H122.084V141.762H121.172V142.416L122.24 142.434Z" fill="#263238"/>
<path d="M123.758 142.596L123.194 141.816L122.594 142.596H122.378L123.05 141.69L122.45 140.832H122.66L123.194 141.552L123.722 140.832H123.92L123.32 141.684L123.992 142.596H123.758Z" fill="#263238"/>
<path d="M125.63 141.438C125.63 141.81 125.354 142.038 124.91 142.038H124.436V142.596H124.25V140.832H124.91C125.354 140.832 125.63 141.06 125.63 141.438ZM125.444 141.438C125.444 141.156 125.258 140.994 124.904 140.994H124.436V141.876H124.904C125.258 141.876 125.444 141.714 125.444 141.438Z" fill="#263238"/>
<path d="M126.722 140.832H127.436C127.67 140.832 127.894 140.925 128.059 141.09C128.225 141.256 128.318 141.48 128.318 141.714C128.318 141.948 128.225 142.172 128.059 142.338C127.894 142.503 127.67 142.596 127.436 142.596H126.722V140.832ZM127.424 142.434C127.615 142.434 127.798 142.358 127.933 142.223C128.068 142.088 128.144 141.905 128.144 141.714C128.144 141.523 128.068 141.34 127.933 141.205C127.798 141.07 127.615 140.994 127.424 140.994H126.908V142.434H127.424Z" fill="#263238"/>
<path d="M129.764 141.774V142.596H129.59V142.386C129.542 142.461 129.473 142.521 129.393 142.56C129.313 142.599 129.223 142.616 129.134 142.608C128.84 142.608 128.654 142.452 128.654 142.224C128.654 141.996 128.786 141.846 129.164 141.846H129.584V141.768C129.589 141.719 129.583 141.669 129.566 141.622C129.549 141.576 129.521 141.534 129.485 141.499C129.449 141.465 129.406 141.44 129.359 141.425C129.311 141.41 129.261 141.406 129.212 141.414C129.05 141.411 128.893 141.467 128.768 141.57L128.69 141.438C128.844 141.316 129.035 141.253 129.23 141.258C129.301 141.247 129.374 141.253 129.442 141.275C129.511 141.297 129.573 141.334 129.625 141.384C129.676 141.434 129.716 141.495 129.74 141.563C129.764 141.63 129.772 141.703 129.764 141.774ZM129.584 142.194V141.978H129.17C128.912 141.978 128.828 142.08 128.828 142.218C128.828 142.356 128.954 142.464 129.164 142.464C129.253 142.47 129.342 142.448 129.417 142.401C129.493 142.353 129.551 142.283 129.584 142.2V142.194Z" fill="#263238"/>
<path d="M130.946 142.512C130.869 142.578 130.771 142.612 130.67 142.608C130.618 142.613 130.565 142.607 130.516 142.59C130.466 142.573 130.421 142.545 130.384 142.508C130.347 142.471 130.318 142.427 130.3 142.378C130.282 142.329 130.275 142.276 130.28 142.224V141.42H130.046V141.27H130.28V141H130.46V141.288H130.862V141.438H130.46V142.2C130.455 142.232 130.458 142.264 130.467 142.294C130.477 142.325 130.493 142.352 130.515 142.376C130.537 142.399 130.564 142.417 130.594 142.428C130.624 142.439 130.656 142.443 130.688 142.44C130.76 142.441 130.829 142.418 130.886 142.374L130.946 142.512Z" fill="#263238"/>
<path d="M132.38 141.99H131.3C131.309 142.119 131.369 142.24 131.467 142.325C131.565 142.411 131.692 142.454 131.822 142.446C131.899 142.449 131.975 142.435 132.046 142.405C132.116 142.375 132.179 142.329 132.23 142.272L132.332 142.392C132.267 142.463 132.187 142.519 132.098 142.556C132.009 142.593 131.912 142.611 131.816 142.608C131.725 142.613 131.634 142.599 131.549 142.567C131.464 142.535 131.386 142.485 131.321 142.421C131.256 142.358 131.205 142.281 131.172 142.196C131.138 142.112 131.123 142.021 131.126 141.93C131.121 141.843 131.134 141.756 131.164 141.674C131.194 141.592 131.241 141.518 131.301 141.455C131.361 141.392 131.434 141.342 131.514 141.308C131.594 141.274 131.681 141.257 131.768 141.258C131.857 141.251 131.946 141.264 132.029 141.296C132.112 141.327 132.187 141.377 132.248 141.442C132.31 141.506 132.356 141.583 132.384 141.668C132.412 141.752 132.421 141.842 132.41 141.93L132.38 141.99ZM131.27 141.852H132.212C132.199 141.736 132.144 141.629 132.057 141.552C131.97 141.474 131.858 141.431 131.741 141.431C131.625 141.431 131.512 141.474 131.425 141.552C131.338 141.629 131.283 141.736 131.27 141.852Z" fill="#263238"/>
<path d="M154.424 144.264V147.102H154.136V144.522H153.464V144.264H154.424Z" fill="#263238"/>
<path d="M157.039 146.838V147.102H155.047V146.892L156.247 145.74C156.565 145.422 156.631 145.23 156.631 145.038C156.631 144.708 156.397 144.504 155.965 144.504C155.821 144.495 155.676 144.519 155.542 144.574C155.408 144.629 155.288 144.714 155.191 144.822L154.981 144.642C155.11 144.505 155.267 144.399 155.441 144.329C155.615 144.26 155.802 144.229 155.989 144.24C156.589 144.24 156.931 144.528 156.931 145.002C156.922 145.175 156.876 145.344 156.795 145.497C156.714 145.651 156.601 145.785 156.463 145.89L155.497 146.838H157.039Z" fill="#263238"/>
<path d="M159.283 146.286C159.283 146.76 158.935 147.126 158.251 147.126C157.877 147.138 157.513 147.007 157.231 146.76L157.375 146.526C157.492 146.637 157.629 146.723 157.78 146.78C157.93 146.837 158.091 146.862 158.251 146.856C158.725 146.856 158.983 146.64 158.983 146.286C158.983 145.932 158.743 145.722 158.215 145.722H158.011V145.506L158.797 144.522H157.345V144.264H159.145V144.468L158.341 145.476C158.977 145.512 159.283 145.83 159.283 146.286Z" fill="#263238"/>
<path d="M153.56 141.714C153.558 141.593 153.581 141.473 153.627 141.362C153.673 141.25 153.741 141.149 153.828 141.065C153.914 140.981 154.017 140.915 154.13 140.872C154.243 140.829 154.363 140.809 154.484 140.814C154.603 140.81 154.721 140.831 154.832 140.875C154.942 140.92 155.042 140.987 155.126 141.072L155.012 141.192C154.943 141.123 154.862 141.069 154.772 141.033C154.682 140.997 154.586 140.98 154.49 140.982C154.388 140.973 154.286 140.985 154.19 141.017C154.093 141.05 154.005 141.102 153.93 141.17C153.855 141.239 153.795 141.323 153.754 141.416C153.713 141.509 153.691 141.609 153.691 141.711C153.691 141.813 153.713 141.913 153.754 142.006C153.795 142.099 153.855 142.183 153.93 142.251C154.005 142.32 154.093 142.372 154.19 142.405C154.286 142.437 154.388 142.449 154.49 142.44C154.587 142.444 154.683 142.427 154.773 142.391C154.863 142.354 154.944 142.3 155.012 142.23L155.126 142.35C155.042 142.437 154.942 142.505 154.83 142.549C154.718 142.594 154.598 142.614 154.478 142.608C154.358 142.613 154.238 142.593 154.126 142.55C154.014 142.508 153.912 142.442 153.826 142.359C153.74 142.275 153.672 142.175 153.627 142.064C153.581 141.953 153.558 141.834 153.56 141.714Z" fill="#263238"/>
<path d="M157.928 140.832L157.328 142.596H157.13L156.614 141.09L156.098 142.596H155.9L155.3 140.832H155.492L156.002 142.35L156.53 140.832H156.704L157.22 142.356L157.736 140.832H157.928Z" fill="#263238"/>
<path d="M138.686 162.348H137.102L136.76 163.11H136.448L137.744 160.272H138.044L139.34 163.11H139.022L138.686 162.348ZM138.572 162.108L137.9 160.584L137.216 162.108H138.572Z" fill="#263238"/>
<path d="M139.514 162.042C139.509 161.897 139.534 161.752 139.588 161.618C139.641 161.483 139.722 161.36 139.825 161.258C139.928 161.156 140.052 161.077 140.187 161.025C140.323 160.973 140.467 160.949 140.612 160.956C140.777 160.946 140.941 160.981 141.087 161.055C141.234 161.13 141.358 161.243 141.446 161.382L141.236 161.526C141.169 161.429 141.079 161.349 140.975 161.294C140.871 161.239 140.754 161.209 140.636 161.208C140.415 161.208 140.203 161.296 140.047 161.452C139.89 161.609 139.802 161.821 139.802 162.042C139.802 162.263 139.89 162.475 140.047 162.632C140.203 162.788 140.415 162.876 140.636 162.876C140.754 162.875 140.87 162.846 140.974 162.792C141.078 162.738 141.168 162.66 141.236 162.564L141.446 162.708C141.356 162.845 141.232 162.956 141.085 163.029C140.939 163.103 140.776 163.137 140.612 163.128C140.467 163.135 140.323 163.111 140.187 163.059C140.052 163.007 139.928 162.928 139.825 162.826C139.722 162.724 139.641 162.601 139.588 162.466C139.534 162.331 139.509 162.187 139.514 162.042Z" fill="#263238"/>
<path d="M143.156 162.978C143.029 163.082 142.869 163.135 142.706 163.128C142.625 163.133 142.545 163.121 142.47 163.093C142.395 163.065 142.326 163.021 142.269 162.964C142.213 162.907 142.169 162.839 142.14 162.764C142.112 162.689 142.1 162.608 142.106 162.528V161.22H141.728V160.974H142.1V160.506H142.388V160.974H143.042V161.22H142.388V162.492C142.38 162.543 142.384 162.596 142.4 162.645C142.416 162.695 142.443 162.74 142.478 162.778C142.514 162.815 142.558 162.844 142.607 162.862C142.656 162.88 142.708 162.887 142.76 162.882C142.875 162.884 142.987 162.846 143.078 162.774L143.156 162.978Z" fill="#263238"/>
<path d="M143.618 160.302C143.618 160.246 143.64 160.193 143.68 160.153C143.719 160.114 143.772 160.092 143.828 160.092C143.884 160.092 143.937 160.114 143.977 160.153C144.016 160.193 144.038 160.246 144.038 160.302C144.038 160.358 144.016 160.411 143.977 160.45C143.937 160.49 143.884 160.512 143.828 160.512C143.772 160.512 143.719 160.49 143.68 160.45C143.64 160.411 143.618 160.358 143.618 160.302ZM143.684 160.974H143.972V163.11H143.684V160.974Z" fill="#263238"/>
<path d="M144.554 162.042C144.554 161.827 144.618 161.618 144.737 161.439C144.856 161.261 145.025 161.122 145.223 161.039C145.421 160.957 145.639 160.935 145.85 160.976C146.06 161.018 146.254 161.121 146.406 161.272C146.558 161.423 146.662 161.616 146.705 161.826C146.747 162.037 146.726 162.255 146.645 162.453C146.564 162.652 146.426 162.822 146.248 162.942C146.07 163.062 145.861 163.127 145.646 163.128C145.502 163.133 145.358 163.108 145.224 163.056C145.09 163.003 144.967 162.923 144.865 162.821C144.763 162.72 144.682 162.598 144.629 162.464C144.575 162.33 144.55 162.186 144.554 162.042ZM146.432 162.042C146.424 161.887 146.37 161.738 146.278 161.613C146.186 161.489 146.059 161.394 145.914 161.34C145.768 161.287 145.61 161.278 145.459 161.313C145.308 161.349 145.171 161.428 145.065 161.541C144.959 161.654 144.888 161.795 144.861 161.948C144.834 162.101 144.853 162.258 144.915 162.4C144.977 162.542 145.079 162.663 145.209 162.748C145.339 162.832 145.491 162.877 145.646 162.876C145.754 162.877 145.86 162.856 145.96 162.814C146.059 162.772 146.148 162.709 146.222 162.631C146.295 162.553 146.352 162.46 146.389 162.358C146.425 162.257 146.44 162.149 146.432 162.042Z" fill="#263238"/>
<path d="M149.3 161.874V163.11H149.012V161.91C149.024 161.821 149.016 161.731 148.988 161.646C148.961 161.561 148.914 161.483 148.853 161.418C148.791 161.353 148.716 161.302 148.632 161.27C148.549 161.238 148.459 161.225 148.37 161.232C148.268 161.224 148.166 161.239 148.071 161.275C147.975 161.312 147.889 161.368 147.818 161.442C147.747 161.515 147.693 161.603 147.66 161.699C147.627 161.796 147.615 161.899 147.626 162V163.122H147.338V160.986H147.614V161.4C147.7 161.266 147.821 161.157 147.963 161.084C148.105 161.011 148.264 160.977 148.424 160.986C148.542 160.978 148.661 160.995 148.771 161.037C148.882 161.079 148.983 161.144 149.066 161.229C149.149 161.313 149.213 161.414 149.253 161.526C149.294 161.637 149.31 161.756 149.3 161.874Z" fill="#263238"/>
<path d="M151.484 160.53V161.646H152.948V161.904H151.484V163.104H151.184V160.266H153.128V160.524L151.484 160.53Z" fill="#263238"/>
<path d="M153.584 160.302C153.584 160.246 153.606 160.193 153.645 160.153C153.685 160.114 153.738 160.092 153.794 160.092C153.85 160.092 153.903 160.114 153.942 160.153C153.982 160.193 154.004 160.246 154.004 160.302C154.004 160.358 153.982 160.411 153.942 160.45C153.903 160.49 153.85 160.512 153.794 160.512C153.738 160.512 153.685 160.49 153.645 160.45C153.606 160.411 153.584 160.358 153.584 160.302ZM153.644 160.974H153.932V163.11H153.644V160.974Z" fill="#263238"/>
<path d="M156.709 160.974V162.852C156.732 162.997 156.72 163.144 156.675 163.284C156.629 163.423 156.552 163.549 156.448 163.653C156.345 163.756 156.218 163.834 156.079 163.879C155.94 163.925 155.792 163.936 155.647 163.914C155.287 163.93 154.933 163.815 154.651 163.59L154.795 163.368C155.031 163.563 155.329 163.667 155.635 163.662C156.175 163.662 156.421 163.41 156.421 162.888V162.6C156.331 162.734 156.207 162.843 156.062 162.916C155.917 162.988 155.755 163.022 155.593 163.014C155.451 163.025 155.308 163.006 155.173 162.959C155.038 162.912 154.914 162.837 154.809 162.74C154.704 162.643 154.621 162.525 154.563 162.394C154.506 162.263 154.477 162.122 154.477 161.979C154.477 161.836 154.506 161.695 154.563 161.564C154.621 161.433 154.704 161.315 154.809 161.218C154.914 161.12 155.038 161.046 155.173 160.999C155.308 160.952 155.451 160.933 155.593 160.944C155.758 160.937 155.922 160.973 156.069 161.048C156.216 161.122 156.341 161.233 156.433 161.37V160.962L156.709 160.974ZM156.433 161.988C156.438 161.827 156.395 161.668 156.309 161.532C156.223 161.395 156.098 161.288 155.95 161.223C155.803 161.158 155.639 161.138 155.481 161.167C155.322 161.195 155.175 161.27 155.06 161.383C154.944 161.495 154.864 161.639 154.831 161.797C154.798 161.955 154.813 162.119 154.873 162.268C154.934 162.418 155.037 162.545 155.171 162.636C155.305 162.726 155.462 162.774 155.623 162.774C155.728 162.781 155.834 162.765 155.933 162.729C156.032 162.693 156.122 162.637 156.198 162.564C156.274 162.492 156.334 162.404 156.375 162.307C156.415 162.21 156.435 162.105 156.433 162V161.988Z" fill="#263238"/>
<path d="M159.44 160.974V163.11H159.164V162.72C159.084 162.851 158.971 162.957 158.836 163.029C158.7 163.101 158.548 163.135 158.396 163.128C158.273 163.139 158.149 163.123 158.034 163.081C157.918 163.039 157.813 162.971 157.727 162.883C157.641 162.795 157.575 162.689 157.535 162.573C157.495 162.456 157.482 162.332 157.496 162.21V160.974H157.784V162.174C157.771 162.263 157.778 162.354 157.805 162.44C157.832 162.526 157.878 162.605 157.94 162.67C158.002 162.736 158.077 162.787 158.161 162.82C158.245 162.852 158.336 162.865 158.426 162.858C158.526 162.863 158.627 162.846 158.721 162.808C158.814 162.77 158.899 162.713 158.968 162.639C159.037 162.565 159.089 162.478 159.121 162.382C159.152 162.286 159.163 162.184 159.152 162.084V160.962L159.44 160.974Z" fill="#263238"/>
<path d="M161.3 160.956V161.238H161.228C161.126 161.233 161.024 161.251 160.93 161.291C160.835 161.33 160.751 161.39 160.682 161.465C160.613 161.541 160.562 161.63 160.532 161.728C160.502 161.826 160.494 161.929 160.508 162.03V163.116H160.22V160.98H160.496V161.4C160.57 161.254 160.687 161.134 160.83 161.055C160.973 160.976 161.137 160.942 161.3 160.956Z" fill="#263238"/>
<path d="M163.7 162.132H161.9C161.906 162.236 161.932 162.338 161.978 162.432C162.024 162.525 162.087 162.609 162.165 162.678C162.243 162.747 162.334 162.801 162.433 162.834C162.531 162.868 162.636 162.882 162.74 162.876C162.863 162.879 162.985 162.856 163.098 162.807C163.211 162.758 163.312 162.686 163.394 162.594L163.556 162.78C163.403 162.941 163.205 163.053 162.989 163.102C162.772 163.151 162.546 163.135 162.339 163.056C162.131 162.978 161.951 162.839 161.822 162.659C161.693 162.478 161.62 162.264 161.612 162.042C161.604 161.901 161.626 161.76 161.675 161.628C161.725 161.495 161.801 161.374 161.898 161.273C161.996 161.171 162.114 161.09 162.244 161.036C162.375 160.981 162.515 160.954 162.656 160.956C162.797 160.953 162.937 160.98 163.067 161.034C163.197 161.088 163.314 161.169 163.411 161.271C163.509 161.373 163.583 161.495 163.631 161.627C163.678 161.76 163.698 161.901 163.688 162.042C163.688 162.042 163.7 162.096 163.7 162.132ZM161.9 161.916H163.412C163.412 161.715 163.332 161.523 163.19 161.381C163.049 161.24 162.856 161.16 162.656 161.16C162.455 161.16 162.263 161.24 162.121 161.381C161.979 161.523 161.9 161.715 161.9 161.916Z" fill="#263238"/>
<path d="M139.958 174.492V175.74H138.848V174.54C137.857 174.509 136.894 174.199 136.07 173.646L136.67 172.29C137.311 172.738 138.058 173.011 138.836 173.082V171.222C137.594 170.916 136.214 170.508 136.214 168.912C136.214 167.712 137.072 166.716 138.836 166.512V165.276H139.946V166.476C140.744 166.521 141.519 166.756 142.208 167.16L141.65 168.528C141.127 168.218 140.548 168.014 139.946 167.928V169.824C141.182 170.112 142.544 170.526 142.544 172.098C142.556 173.28 141.71 174.282 139.958 174.492ZM138.848 169.572V168C138.248 168.132 138.02 168.456 138.02 168.822C138.02 169.188 138.356 169.416 138.848 169.572ZM140.762 172.254C140.762 171.864 140.438 171.654 139.958 171.486V173.022C140.516 172.902 140.762 172.614 140.762 172.254Z" fill="#263238"/>
<path d="M149.126 172.932V174.408H143.234V173.238L146.234 170.394C146.93 169.734 147.05 169.338 147.05 168.954C147.05 168.354 146.624 167.988 145.802 167.988C145.49 167.976 145.179 168.041 144.898 168.177C144.616 168.313 144.373 168.516 144.188 168.768L142.874 167.922C143.229 167.442 143.698 167.058 144.239 166.805C144.779 166.551 145.374 166.436 145.97 166.47C147.71 166.47 148.868 167.364 148.868 168.78C148.868 169.536 148.652 170.226 147.56 171.24L145.76 172.932H149.126Z" fill="#263238"/>
<path d="M149.852 170.508C149.852 167.934 151.28 166.47 153.194 166.47C155.108 166.47 156.536 167.934 156.536 170.508C156.536 173.082 155.12 174.54 153.194 174.54C151.268 174.54 149.852 173.082 149.852 170.508ZM154.724 170.508C154.724 168.708 154.124 168 153.194 168C152.264 168 151.682 168.732 151.682 170.508C151.682 172.284 152.282 173.01 153.194 173.01C154.106 173.01 154.7 172.278 154.7 170.508H154.724Z" fill="#263238"/>
<path d="M157.418 170.508C157.418 167.934 158.846 166.47 160.76 166.47C162.674 166.47 164.102 167.934 164.102 170.508C164.102 173.082 162.686 174.54 160.76 174.54C158.834 174.54 157.418 173.082 157.418 170.508ZM162.284 170.508C162.284 168.708 161.684 168 160.76 168C159.836 168 159.242 168.732 159.242 170.508C159.242 172.284 159.842 173.01 160.76 173.01C161.678 173.01 162.284 172.278 162.284 170.508Z" fill="#263238"/>
<path d="M162.59 194.268H137.714C136.17 194.266 134.691 193.653 133.6 192.562C132.509 191.47 131.895 189.991 131.894 188.448C131.894 186.904 132.507 185.423 133.598 184.33C134.689 183.238 136.169 182.624 137.714 182.622H162.59C163.354 182.622 164.112 182.773 164.818 183.066C165.525 183.358 166.167 183.788 166.707 184.329C167.248 184.87 167.676 185.512 167.968 186.219C168.26 186.926 168.41 187.683 168.41 188.448C168.41 189.992 167.796 191.472 166.705 192.563C165.613 193.655 164.133 194.268 162.59 194.268Z" fill="#263238"/>
<path d="M142.172 187.8C142.172 188.532 141.644 188.97 140.774 188.97H139.85V190.05H139.49V186.63H140.774C141.644 186.654 142.172 187.092 142.172 187.8ZM141.806 187.8C141.806 187.254 141.446 186.942 140.762 186.942H139.85V188.652H140.762C141.446 188.676 141.806 188.364 141.806 187.8Z" fill="white"/>
<path d="M144.794 188.478V190.074H144.464V189.672C144.367 189.816 144.234 189.931 144.078 190.006C143.921 190.081 143.748 190.112 143.576 190.098C142.976 190.098 142.64 189.798 142.64 189.348C142.64 188.898 142.892 188.622 143.63 188.622H144.446V188.466C144.446 188.028 144.2 187.788 143.72 187.788C143.407 187.783 143.103 187.89 142.862 188.088L142.706 187.83C143.004 187.595 143.376 187.472 143.756 187.482C143.893 187.462 144.033 187.474 144.165 187.516C144.297 187.559 144.418 187.63 144.518 187.726C144.618 187.823 144.695 187.94 144.743 188.07C144.79 188.201 144.808 188.34 144.794 188.478ZM144.446 189.3V188.88H143.642C143.144 188.88 142.982 189.078 142.982 189.342C142.982 189.606 143.222 189.828 143.63 189.828C143.804 189.839 143.978 189.794 144.125 189.699C144.272 189.604 144.384 189.464 144.446 189.3Z" fill="white"/>
<path d="M147.848 187.5L146.564 190.38C146.348 190.884 146.078 191.046 145.712 191.046C145.484 191.046 145.264 190.957 145.1 190.8L145.262 190.542C145.322 190.605 145.395 190.655 145.475 190.689C145.556 190.723 145.642 190.74 145.73 190.74C145.964 190.74 146.12 190.632 146.264 190.308L146.378 190.056L145.226 187.488H145.592L146.558 189.678L147.5 187.5H147.848Z" fill="white"/>
<path d="M150.782 190.098V190.662H150.536V190.104C150.106 190.101 149.691 189.943 149.366 189.66L149.51 189.378C149.794 189.631 150.157 189.777 150.536 189.792V188.508C149.996 188.376 149.45 188.208 149.45 187.56C149.45 187.092 149.786 186.684 150.536 186.63V186.066H150.782V186.6C151.134 186.606 151.477 186.71 151.772 186.9L151.652 187.188C151.39 187.024 151.091 186.927 150.782 186.906V188.202C151.334 188.334 151.916 188.49 151.916 189.144C151.916 189.642 151.556 190.056 150.782 190.098ZM150.536 188.166V186.966C150.032 187.008 149.804 187.266 149.804 187.566C149.804 187.866 150.134 188.058 150.536 188.166ZM151.556 189.192C151.556 188.802 151.202 188.67 150.782 188.592V189.792C151.316 189.75 151.556 189.504 151.556 189.192Z" fill="white"/>
<path d="M154.736 189.762V190.074H152.336V189.828L153.758 188.43C154.142 188.052 154.214 187.83 154.214 187.584C154.214 187.188 153.938 186.948 153.416 186.948C153.241 186.939 153.067 186.969 152.906 187.034C152.744 187.099 152.599 187.199 152.48 187.326L152.228 187.11C152.381 186.947 152.567 186.82 152.775 186.736C152.982 186.652 153.204 186.614 153.428 186.624C154.118 186.624 154.562 186.978 154.562 187.548C154.553 187.757 154.498 187.961 154.4 188.146C154.303 188.331 154.165 188.491 153.998 188.616L152.834 189.762H154.736Z" fill="white"/>
<path d="M155.156 188.364C155.156 187.272 155.726 186.624 156.518 186.624C157.31 186.624 157.886 187.272 157.886 188.364C157.886 189.456 157.286 190.104 156.518 190.104C155.75 190.104 155.156 189.456 155.156 188.364ZM157.526 188.364C157.526 187.452 157.118 186.948 156.518 186.948C155.918 186.948 155.51 187.452 155.51 188.364C155.51 189.276 155.924 189.78 156.518 189.78C157.112 189.78 157.526 189.276 157.526 188.364Z" fill="white"/>
<path d="M158.39 188.364C158.39 187.272 158.99 186.624 159.758 186.624C160.526 186.624 161.126 187.272 161.126 188.364C161.126 189.456 160.526 190.104 159.758 190.104C158.99 190.104 158.39 189.456 158.39 188.364ZM160.79 188.364C160.79 187.452 160.382 186.948 159.788 186.948C159.194 186.948 158.78 187.452 158.78 188.364C158.78 189.276 159.188 189.78 159.788 189.78C160.388 189.78 160.76 189.276 160.76 188.364H160.79Z" fill="white"/>
<path d="M112.513 175.944C113.413 189.774 107.005 205.176 107.005 205.176L72.3915 195.432L66.3555 193.728C72.3555 185.394 75.2115 168.978 73.6455 155.694C73.5255 154.692 73.4535 153.75 73.3995 152.85C72.7995 141.894 77.3535 138.69 81.1995 133.848C85.3995 128.604 94.7475 108.804 94.7475 104.118C94.7475 99.432 106.477 87.96 103.867 74.94C103.867 74.94 107.413 72.738 110.977 74.544C112.597 75.36 114.211 76.998 115.513 80.034C118.567 87.168 114.277 107.334 110.629 112.278L103.603 141.366C103.603 141.366 105.973 145.452 108.301 152.868C110.616 160.366 112.03 168.112 112.513 175.944Z" fill="white"/>
<path opacity="0.4" d="M73.4 152.85C75.362 158.22 77.444 161.85 77.264 169.374C77.084 176.898 73.064 188.478 74.21 194.496C73.5553 194.689 72.9441 195.007 72.41 195.432L66.374 193.728C72.374 185.394 75.23 168.978 73.664 155.694C73.526 154.692 73.454 153.75 73.4 152.85Z" fill="#FF3E15"/>
<path opacity="0.4" d="M110.63 112.278L103.604 141.366C103.604 141.366 105.974 145.452 108.302 152.868C103.544 145.2 99.5 142.908 99.5 142.908C102.668 139.11 105.11 111.33 105.11 111.33C105.11 111.33 115.04 99.66 114.11 87.4499C113.812 83.0005 112.752 78.6352 110.978 74.5439C112.598 75.3599 114.212 76.9979 115.514 80.0339C118.568 87.1679 114.278 107.334 110.63 112.278Z" fill="#FF3E15"/>
<path d="M66.3555 193.728C72.3555 185.394 75.2115 168.978 73.6515 155.694C72.0915 142.41 77.0355 139.086 81.2055 133.842C85.3755 128.598 94.7475 108.804 94.7475 104.112C94.7475 99.42 106.471 87.966 103.867 74.94C103.867 74.94 111.349 70.302 115.513 80.034C118.567 87.174 114.277 107.334 110.629 112.284L103.609 141.366C103.609 141.366 111.103 154.296 112.513 175.944C113.413 189.774 107.005 205.182 107.005 205.182" stroke="#263238" stroke-linecap="round" stroke-linejoin="round"/>
<path d="M89.4922 216.246C89.4922 216.246 97.3702 221.094 101.966 228.762" stroke="#263238" stroke-linecap="round" stroke-linejoin="round"/>
<path d="M111.62 225.42C111.62 225.42 104.834 226.386 98.7016 219.048C94.7716 214.35 82.8376 212.226 80.1016 199.938" stroke="#263238" stroke-linecap="round" stroke-linejoin="round"/>
<path opacity="0.2" d="M210.248 261.756C192.878 253.446 203.396 246.786 179.498 236.472C155.6 226.158 155.36 217.344 158.24 197.076C161.12 176.808 158.84 155.25 165.788 153.42C172.736 151.59 160.352 123.636 168.452 113.754L208.316 191.298L210.248 261.756Z" fill="black" fill-opacity="0.7"/>
<path d="M274.97 260.946C274.154 258.612 273.326 256.062 272.684 253.746C271.856 250.746 271.208 248.346 269.684 245.556C269.444 245.112 269.186 244.644 268.898 244.14C267.272 241.242 265.046 237.276 263.744 232.404C262.868 229.122 263.744 221.04 264.56 213.204C265.16 207.576 265.706 202.266 265.544 199.254L265.496 198.186C265.088 190.308 264.236 173.916 262.496 169.386C260.786 165.018 259.19 164.364 256.28 163.2C255.98 163.068 255.68 162.948 255.332 162.804C254.24 162.348 252.38 161.388 250.238 160.278C245.408 157.776 239.396 154.662 236.342 154.278C233.485 153.957 230.595 154.091 227.78 154.674C224.018 151.788 217.616 148.074 215.708 147.996C214.148 147.918 210.74 148.896 209.108 149.406L208.286 149.67C207.252 148.868 206.157 148.15 205.01 147.522C204.932 147.48 204.854 147.45 204.788 147.42C202.67 146.55 199.472 146.52 197.726 146.568C197.198 146.568 196.784 146.622 196.598 146.64C193.304 141.57 190.064 136.524 188.654 134.31C185.714 129.654 176.612 110.496 176.522 110.31C176.511 110.285 176.495 110.264 176.474 110.247C176.453 110.23 176.428 110.219 176.402 110.214C176.374 110.21 176.346 110.21 176.318 110.214C175.61 110.01 170.396 108.684 168.302 113.736C166.01 119.238 169.28 131.316 172.472 135.702C174.008 137.814 178.202 146.43 182.456 155.346C181.364 156.36 172.628 164.43 168.386 165.936C164.912 167.166 165.728 184.974 166.382 199.272C166.628 204.552 166.832 209.094 166.772 211.824C166.652 217.104 176.258 224.376 185.57 231.408C193.97 237.78 202.682 244.362 203.702 249.144C203.984 250.488 204.788 251.58 205.748 252.81C207.35 254.85 209.414 257.256 210.29 261.81C210.548 263.178 212.744 264.966 214.49 267.888H277.514C276.986 266.466 275.99 263.874 274.97 260.946ZM187.568 166.086C190.622 172.482 192.512 176.286 192.968 176.712C193.424 177.138 193.394 179.166 193.382 181.14C193.316 182.868 193.376 184.599 193.562 186.318C192.818 186.972 188.12 191.25 187.172 194.718L183.182 190.02L182.174 175.278C182.774 174.642 186.878 170.304 187.568 166.086Z" fill="white"/>
<path opacity="0.4" d="M256.886 207.186C258.368 221.016 258.386 228.516 260.048 232.518C262.856 239.274 266.99 240.642 266.99 240.642C265.615 238.023 264.523 235.266 263.732 232.416C262.862 229.134 263.732 221.052 264.548 213.216C265.148 207.588 265.7 202.272 265.544 199.26L265.49 198.192C265.082 190.32 264.23 173.928 262.49 169.392C260.786 165.024 259.184 164.37 256.274 163.2C255.974 163.074 255.674 162.954 255.326 162.81C254.234 162.354 252.38 161.394 250.232 160.284C245.402 157.782 239.39 154.668 236.336 154.284C233.479 153.959 230.588 154.093 227.774 154.68C224.012 151.794 217.61 148.08 215.702 148.002C214.142 147.924 209.912 149.154 208.268 149.676C215.468 155.55 225.836 162.876 225.836 162.876C234.038 164.508 232.988 168.066 236.306 170.076C239.306 171.876 242.174 166.608 244.706 166.146C248.018 165.546 251.78 169.038 251.612 173.274C251.096 184.944 255.614 195.312 256.886 207.186Z" fill="#FF3E15"/>
<path opacity="0.4" d="M215.425 164.328C215.425 164.328 208.927 158.928 205.825 157.128C202.723 155.328 202.225 149.124 204.673 147.618C204.766 147.562 204.871 147.529 204.979 147.522L204.757 147.42C202.639 146.55 199.441 146.514 197.695 146.568C201.295 153.27 204.169 158.412 204.943 159.54C207.553 163.308 215.425 164.328 215.425 164.328Z" fill="#FF3E15"/>
<path opacity="0.4" d="M205.567 248.304C205.843 246.87 203.479 242.67 202.441 240.966C200.083 237.078 172.705 212.886 176.671 206.43C180.637 199.974 184.261 204.75 186.769 205.17C188.569 205.47 193.513 202.524 193.489 202.278C192.925 197.304 197.515 194.07 197.515 194.07C197.515 194.07 197.095 174.27 196.039 174.606C194.983 174.942 182.347 144.876 182.347 144.876C182.347 144.876 168.991 127.116 169.747 118.83C170.503 110.544 176.299 110.4 176.299 110.4V110.178C175.591 109.974 170.377 108.648 168.283 113.7C165.991 119.202 169.261 131.28 172.453 135.666C173.989 137.778 178.183 146.394 182.437 155.31C181.345 156.324 172.609 164.394 168.367 165.9C164.893 167.13 165.709 184.938 166.363 199.236C166.609 204.516 166.813 209.058 166.753 211.788C166.633 217.068 176.239 224.34 185.551 231.372C193.951 237.744 202.663 244.326 203.683 249.108C203.965 250.452 204.769 251.544 205.729 252.774C205.538 251.292 205.484 249.796 205.567 248.304ZM187.567 166.104C190.621 172.5 192.511 176.304 192.967 176.73C193.423 177.156 193.393 179.184 193.381 181.158C193.315 182.886 193.375 184.617 193.561 186.336C192.817 186.99 188.119 191.268 187.171 194.736L183.181 190.038L182.173 175.296C182.773 174.642 186.877 170.304 187.567 166.086V166.104Z" fill="#FF3E15"/>
<path d="M211.699 164.25C209.018 163.406 206.663 161.755 204.955 159.522C202.213 155.85 191.443 139.122 188.461 134.406C185.479 129.69 176.299 110.4 176.299 110.4C176.299 110.4 170.659 108.51 168.463 113.778C166.267 119.046 169.273 130.95 172.615 135.534C175.957 140.118 191.839 175.416 193.099 176.556C194.359 177.696 192.469 187.116 194.995 189.396" stroke="#263238" stroke-linecap="round" stroke-linejoin="round"/>
<path d="M193.783 186.402C193.783 186.402 187.963 191.472 187.279 195.174L182.959 190.092L181.939 175.2C181.939 175.2 187.153 169.98 187.441 165.336" stroke="#263238" stroke-linecap="round" stroke-linejoin="round"/>
<path d="M182.677 155.328C182.677 155.328 173.011 164.448 168.415 166.074C163.819 167.7 167.173 201.87 166.945 211.764C166.717 221.658 201.715 238.896 203.863 249.024C204.715 253.056 208.243 253.878 210.397 261.624" stroke="#263238" stroke-linecap="round" stroke-linejoin="round"/>
<path d="M196.436 146.838C196.436 146.838 201.698 146.364 204.662 147.6C207.626 148.836 219.662 159.174 222.566 161.148C225.47 163.122 229.838 163.872 230.666 166.002" stroke="#263238" stroke-linecap="round" stroke-linejoin="round"/>
<path d="M208.201 149.886C208.201 149.886 213.601 148.086 215.665 148.188C217.729 148.29 225.493 152.868 228.973 155.928C231.64 158.294 234.711 160.16 238.039 161.436" stroke="#263238" stroke-linecap="round" stroke-linejoin="round"/>
<path d="M227.708 154.89C230.526 154.283 233.425 154.143 236.288 154.476C240.68 155.076 251.708 161.556 255.224 163.02C258.74 164.484 260.42 164.754 262.268 169.482C264.116 174.21 264.962 192.186 265.334 199.29C265.706 206.394 262.004 226.74 263.534 232.464C265.064 238.188 267.824 242.604 269.498 245.664" stroke="#263238" stroke-linecap="round" stroke-linejoin="round"/>
<path d="M181.939 175.2C181.939 175.2 181.099 171.69 179.899 171.24" stroke="#263238" stroke-linecap="round" stroke-linejoin="round"/>
<path d="M182.96 190.092C183.365 192.138 183.912 194.153 184.598 196.122C185.462 198.252 184.118 201.336 184.118 201.336" stroke="#263238" stroke-linecap="round" stroke-linejoin="round"/>
<path d="M187.279 195.174C187.141 198.582 190.531 202.566 191.353 202.002" stroke="#263238" stroke-linecap="round" stroke-linejoin="round"/>
<path d="M204.542 175.2C204.542 175.2 208.184 169.308 211.676 169.02C215.168 168.732 219.2 173.688 221.354 173.22C223.508 172.752 226.22 169.584 229.844 169.02C233.468 168.456 235.166 170.184 238.04 170.328C240.914 170.472 241.208 166.632 244.64 166.128C248.072 165.624 249.242 167.328 251.546 167.772C253.85 168.216 254.426 166.398 256.292 165.372" stroke="#263238" stroke-linecap="round" stroke-linejoin="round"/>
</svg>
